<?xml version="1.0" encoding="UTF-8"?>
<svg id="Capa_1" xmlns="http://www.w3.org/2000/svg" version="1.1" viewBox="0 0 32 32">
  <!-- Generator: Adobe Illustrator 29.4.0, SVG Export Plug-In . SVG Version: 2.1.0 Build 152)  -->
  <defs>
    <style>
      .st0 {
        fill: #d00000;
      }
    </style>
  </defs>
  <path class="st0" d="M18.4,30.6c-1.5,0-4-.2-6.3-.5-2.9-.4-5.9-1-6.6-1.3-.7-.3-1.8-1.1-2.4-1.8-.8-.8-1.3-2-1.6-3.6-.3-1.8-.3-2.7,0-3.7.3-.7,1.2-1.6,2-2.1.8-.5,2-.9,2.7-.9h0c.7,0,2.3.7,3.7,1.5,1.4.8,3.3,1.8,4.3,2.1,1.1.4,2.8.6,3.8.6,0,0,.2,0,.2,0,1,0,2.2-.2,2.7-.4.5-.3.9-.7.9-.8,0-.1-.4-.8-1-1.4-.6-.6-2.7-1.6-4.5-2.3-2-.7-4.1-1.7-4.8-2.1-.8-.5-1.8-1.6-2.4-2.4-.9-1.3-1-1.9-.8-3.5.2-1.2.7-2.5,1.1-3.1.5-.7,1.8-1.5,2.7-1.9,1.1-.5,3-1,4.4-1.2,1.6-.2,2.4-.3,2.6-.3h0s0,0,0,0c.2,0,1.9.4,2.5.5,1.3.3,3,.9,3.7,1.3.8.4,1.8,1.1,2.4,1.6.5.5,1.1,1.2,1.4,1.6.3.6.3,1.2,0,1.8-.3.5-1.1,1.2-1.8,1.5-.5.2-.8.3-1.2.3-.6,0-1.2-.3-2.7-1-1.9-1-3-1.3-5.2-1.4-.4,0-.7,0-1,0-1.3,0-2.1.1-2.5.5-.2.2-.4.3-.5.4,0,0,.3.2.4.3.5.2,2.3.8,4.2,1.3,1.9.5,4.1,1.3,5.1,2,.9.6,2.5,2.1,3.6,3.3,2,2.2,2.1,2.4,2.1,4.8s-.2,3.1-.5,4c-.3.8-1,2.2-1.7,3-.9,1.1-2,1.7-3.8,2.3-1.3.5-3.4.9-4.4,1.1-.2,0-.5,0-.8,0ZM6.3,18.3c-.5,0-1.3.3-2,.7-.6.4-1.2.9-1.3,1.4-.3.6-.3,1.2,0,2.8.2,1.4.6,2.2,1.2,2.8h0c.5.6,1.3,1.2,1.9,1.5.5.2,3.3.8,6.2,1.2,2.3.3,4.7.5,6,.5s.6,0,.7,0c.9-.1,2.8-.6,4.2-1,1.6-.5,2.4-1,3.1-1.9.6-.7,1.2-1.8,1.4-2.5.3-.7.4-2.4.4-3.6q0-1.9-1.7-3.8c-1-1.2-2.5-2.5-3.3-3-.7-.5-2.7-1.3-4.6-1.8-2.1-.6-4.2-1.2-4.6-1.4h0s0,0,0,0c-.9-.5-1.3-1-1.3-1.6,0-.6.3-1.1,1.1-1.8.7-.5,1.7-.8,3.5-.8s.7,0,1,0c2.4.1,3.8.5,5.9,1.6,1.2.6,1.6.9,2,.9s.3,0,.6-.2c.5-.2.9-.6,1-.7h0s0,0,0,0c0,0,0,0,0-.1,0,0,0,0,0,0,0,0,0,0,0,0-.1-.3-.5-.7-1.1-1.2-.5-.4-1.4-1-2.1-1.4-.7-.3-2.2-.9-3.4-1.2-.9-.2-1.8-.4-2.1-.5-.5.1-1.2.2-2,.3h-.5c-1.3.2-3,.7-3.9,1.1-1,.5-1.9,1.1-2.1,1.5h0s0,0,0,0c-.3.3-.7,1.2-.8,2.3-.2,1.4-.2,1.5.5,2.5.5.7,1.4,1.6,1.9,2,.6.4,2.6,1.2,4.5,2,2.1.8,4.3,1.9,5.1,2.6.6.6,1.5,1.6,1.5,2.5s-.7,1.7-1.8,2.2c-.7.3-2.1.6-3.3.6s-.2,0-.3,0h0c-1.2,0-3.1-.3-4.2-.6-1.2-.4-3.2-1.4-4.7-2.2-1.3-.8-2.4-1.3-2.8-1.3ZM18.2,28.6c-1.3,0-3.7-.2-6-.5-2.9-.4-5.6-.9-6-1.1-.5-.3-1.3-.8-1.8-1.4-.6-.6-.8-1.2-1.1-2.6-.3-1.5-.3-2,0-2.6h0s0,0,0,0c.2-.4.6-.8,1.2-1.1.6-.3,1.3-.6,1.8-.7h0s0,0,0,0c.4,0,1.5.6,2.6,1.2,1.5.9,3.7,1.9,4.8,2.2,1.3.4,3.3.7,4.4.7,0,0,.2,0,.2,0,1.3,0,2.8-.3,3.5-.6,1.3-.6,2-1.6,2-2.6s-.6-1.9-1.7-2.8c-.8-.8-3.1-2-5.2-2.7-1.9-.7-3.9-1.5-4.5-1.9-.6-.4-1.4-1.2-1.8-1.8-.6-.9-.6-.9-.5-2.2.1-.9.5-1.9.7-2.1.2-.4,1.2-1,2-1.3.9-.4,2.6-.9,3.8-1,0,0,.2,0,.3,0,0,0,.2,0,.2,0h0s0,0,0,0c.7,0,1.4-.2,1.9-.2h0s0,0,0,0c.1,0,.2,0,.4,0,.4,0,1,.2,1.6.3,1.3.3,2.7.8,3.3,1.1.6.3,1.5.9,2,1.3.3.3.6.6.8.9h0c0,0,0,.2,0,.2-.1.2-.6.4-.8.5-.1,0-.3.1-.4.1-.3,0-.6-.2-1.8-.8-2.1-1.1-3.6-1.5-6.1-1.7-.3,0-.6,0-.9,0-1.9,0-3.1.2-3.9.8-.9.7-1.4,1.4-1.3,2.1,0,.7.6,1.3,1.6,1.9.4.2,2.5.9,4.7,1.4,1.7.5,3.7,1.2,4.4,1.7.8.5,2.2,1.8,3.2,3,1.5,1.7,1.6,1.7,1.6,3.5s-.1,2.7-.4,3.5c-.2.7-.7,1.7-1.3,2.4-.7.8-1.3,1.2-2.9,1.7-1.3.4-3.2.9-4.1,1-.1,0-.4,0-.7,0Z"/>
</svg>