<?xml version="1.0" encoding="UTF-8"?>
<svg id="Capa_1" xmlns="http://www.w3.org/2000/svg" version="1.1" viewBox="0 0 48 48">
  <!-- Generator: Adobe Illustrator 29.4.0, SVG Export Plug-In . SVG Version: 2.1.0 Build 152)  -->
  <defs>
    <style>
      .st0 {
        fill: #d00000;
      }

      .st1 {
        fill: none;
      }

      .st2 {
        fill: #ece2d0;
      }
    </style>
  </defs>
  <rect class="st0" x="0" width="48" height="48"/>
  <g>
    <g>
      <path class="st2" d="M27.5,19.3c-.5,0-1.1,0-1.7.2-2.7.6-4.9,2.8-5.5,5.5-1.1,4.8,2.6,9,7.1,9s1.1,0,1.7-.2c2.7-.6,4.9-2.8,5.5-5.5,1.1-4.8-2.6-9-7.1-9ZM27.5,32.3c-.5,0-1,0-1.6-.2-1.9-.5-3.5-2.1-4-4-1-3.8,1.8-7.3,5.5-7.3s1,0,1.5.2c1.9.5,3.5,2.1,4,4,1,3.8-1.8,7.3-5.5,7.3ZM27.5,19.3c-.5,0-1.1,0-1.7.2-2.7.6-4.9,2.8-5.5,5.5-1.1,4.8,2.6,9,7.1,9s1.1,0,1.7-.2c2.7-.6,4.9-2.8,5.5-5.5,1.1-4.8-2.6-9-7.1-9ZM27.5,32.3c-.5,0-1,0-1.6-.2-1.9-.5-3.5-2.1-4-4-1-3.8,1.8-7.3,5.5-7.3s1,0,1.5.2c1.9.5,3.5,2.1,4,4,1,3.8-1.8,7.3-5.5,7.3ZM27.5,19.3c-.5,0-1.1,0-1.7.2-2.7.6-4.9,2.8-5.5,5.5-1.1,4.8,2.6,9,7.1,9s1.1,0,1.7-.2c2.7-.6,4.9-2.8,5.5-5.5,1.1-4.8-2.6-9-7.1-9ZM27.5,32.3c-.5,0-1,0-1.6-.2-1.9-.5-3.5-2.1-4-4-1-3.8,1.8-7.3,5.5-7.3s1,0,1.5.2c1.9.5,3.5,2.1,4,4,1,3.8-1.8,7.3-5.5,7.3ZM27.5,19.3c-.5,0-1.1,0-1.7.2-2.7.6-4.9,2.8-5.5,5.5-1.1,4.8,2.6,9,7.1,9s1.1,0,1.7-.2c2.7-.6,4.9-2.8,5.5-5.5,1.1-4.8-2.6-9-7.1-9ZM27.5,32.3c-.5,0-1,0-1.6-.2-1.9-.5-3.5-2.1-4-4-1-3.8,1.8-7.3,5.5-7.3s1,0,1.5.2c1.9.5,3.5,2.1,4,4,1,3.8-1.8,7.3-5.5,7.3ZM33.9,17.4c-4.3-3.1-9.4-5.3-13.8-7.2h-.2c0,0-.2,0-.2,0-.8,0-1.5.4-1.9,1.1-.4.8-.3,1.8.3,2.5l2.6,1.6h-9.8c-.5,0-1.3.4-1.5.6-.7.5-1.1,1.4-1,2.3,0,.9.5,1.7,1.2,2.2,0,0,.8.4,1.2.4h5.3l-6.4,4c-.8.6-1.3,1.6-1.3,2.8s.4,2.2,1.2,2.9c.7.6,1.4.8,2.1.8,1.6,0,3.2-1.3,4.3-2.3.2-.1.3-.3.5-.4.6,3.5,2.8,6.4,6,8,1.6.8,3.4,1.2,5.1,1.2,2.9,0,5.8-1.1,8.1-3.4,1-1,1.7-2.1,2.3-3.4,2.1-5.1.3-10.7-3.9-13.7ZM36.4,30.4c-.4,1.1-1.1,2.2-2,3-2,1.9-4.4,2.9-6.9,2.9s-2.9-.3-4.3-1c-1.3-.6-2.4-1.6-3.3-2.7,0-.1-.2-.2-.2-.3-.7-1-1.2-2.1-1.5-3.2-.2-.6-.3-1.2-.3-1.8,0-.4-.3-.8-.7-.9,0,0-.1,0-.2,0-.3,0-.6.2-.7.2-.5.3-1,.8-1.5,1.2-1.3,1.1-2.3,1.9-3.2,1.9s-.7-.1-1.1-.4c-.4-.3-.6-.9-.6-1.6,0-.7.3-1.2.6-1.5l9.5-6c.4-.3.2-1-.3-1h-7c-.3,0-.8,0-1.2,0s-.8,0-1.1-.2c-.3-.2-.5-.5-.5-.9s.1-.7.4-.9c.1,0,.4-.3.5-.3h13.9c.4,0,.6-.6.2-.8l-5.7-3.6c-.2-.2,0-.6,0-.6,0,0,.2-.2.4-.2,4.3,1.8,9.2,4,13.4,6.9,3.6,2.6,5.2,7.3,3.4,11.7ZM27.5,19.3c-.5,0-1.1,0-1.7.2-2.7.6-4.9,2.8-5.5,5.5-1.1,4.8,2.6,9,7.1,9s1.1,0,1.7-.2c2.7-.6,4.9-2.8,5.5-5.5,1.1-4.8-2.6-9-7.1-9ZM27.5,32.3c-.5,0-1,0-1.6-.2-1.9-.5-3.5-2.1-4-4-1-3.8,1.8-7.3,5.5-7.3s1,0,1.5.2c1.9.5,3.5,2.1,4,4,1,3.8-1.8,7.3-5.5,7.3ZM27.5,19.3c-.5,0-1.1,0-1.7.2-2.7.6-4.9,2.8-5.5,5.5-1.1,4.8,2.6,9,7.1,9s1.1,0,1.7-.2c2.7-.6,4.9-2.8,5.5-5.5,1.1-4.8-2.6-9-7.1-9ZM27.5,32.3c-.5,0-1,0-1.6-.2-1.9-.5-3.5-2.1-4-4-1-3.8,1.8-7.3,5.5-7.3s1,0,1.5.2c1.9.5,3.5,2.1,4,4,1,3.8-1.8,7.3-5.5,7.3ZM27.5,19.3c-.5,0-1.1,0-1.7.2-2.7.6-4.9,2.8-5.5,5.5-1.1,4.8,2.6,9,7.1,9s1.1,0,1.7-.2c2.7-.6,4.9-2.8,5.5-5.5,1.1-4.8-2.6-9-7.1-9ZM27.5,32.3c-.5,0-1,0-1.6-.2-1.9-.5-3.5-2.1-4-4-1-3.8,1.8-7.3,5.5-7.3s1,0,1.5.2c1.9.5,3.5,2.1,4,4,1,3.8-1.8,7.3-5.5,7.3ZM27.5,19.3c-.5,0-1.1,0-1.7.2-2.7.6-4.9,2.8-5.5,5.5-1.1,4.8,2.6,9,7.1,9s1.1,0,1.7-.2c2.7-.6,4.9-2.8,5.5-5.5,1.1-4.8-2.6-9-7.1-9ZM27.5,32.3c-.5,0-1,0-1.6-.2-1.9-.5-3.5-2.1-4-4-1-3.8,1.8-7.3,5.5-7.3s1,0,1.5.2c1.9.5,3.5,2.1,4,4,1,3.8-1.8,7.3-5.5,7.3ZM27.5,19.3c-.5,0-1.1,0-1.7.2-2.7.6-4.9,2.8-5.5,5.5-1.1,4.8,2.6,9,7.1,9s1.1,0,1.7-.2c2.7-.6,4.9-2.8,5.5-5.5,1.1-4.8-2.6-9-7.1-9ZM27.5,32.3c-.5,0-1,0-1.6-.2-1.9-.5-3.5-2.1-4-4-1-3.8,1.8-7.3,5.5-7.3s1,0,1.5.2c1.9.5,3.5,2.1,4,4,1,3.8-1.8,7.3-5.5,7.3Z"/>
      <path class="st1" d="M32.6,25.2c-.5-1.7-1.9-3.2-3.7-3.6-.5-.1-1-.2-1.4-.2-1.7,0-3.2.8-4.2,2.1-1,1.3-1.3,3-.9,4.7.5,1.8,1.9,3.2,3.6,3.7.5.1,1,.2,1.5.2,1.6,0,3.2-.8,4.2-2.1,1-1.3,1.3-3,.9-4.7ZM32.6,25.2c-.5-1.7-1.9-3.2-3.7-3.6-.5-.1-1-.2-1.4-.2-1.7,0-3.2.8-4.2,2.1-1,1.3-1.3,3-.9,4.7.5,1.8,1.9,3.2,3.6,3.7.5.1,1,.2,1.5.2,1.6,0,3.2-.8,4.2-2.1,1-1.3,1.3-3,.9-4.7ZM27.5,19.3c-.5,0-1.1,0-1.7.2-2.7.6-4.9,2.8-5.5,5.5-1.1,4.8,2.6,9,7.1,9s1.1,0,1.7-.2c2.7-.6,4.9-2.8,5.5-5.5,1.1-4.8-2.6-9-7.1-9ZM27.5,32.3c-.5,0-1,0-1.6-.2-1.9-.5-3.5-2.1-4-4-1-3.8,1.8-7.3,5.5-7.3s1,0,1.5.2c1.9.5,3.5,2.1,4,4,1,3.8-1.8,7.3-5.5,7.3ZM28.9,21.5c-.5-.1-1-.2-1.4-.2-1.7,0-3.2.8-4.2,2.1-1,1.3-1.3,3-.9,4.7.5,1.8,1.9,3.2,3.6,3.7.5.1,1,.2,1.5.2,1.6,0,3.2-.8,4.2-2.1,1-1.3,1.3-3,.9-4.7-.5-1.7-1.9-3.2-3.7-3.6ZM27.5,19.3c-.5,0-1.1,0-1.7.2-2.7.6-4.9,2.8-5.5,5.5-1.1,4.8,2.6,9,7.1,9s1.1,0,1.7-.2c2.7-.6,4.9-2.8,5.5-5.5,1.1-4.8-2.6-9-7.1-9ZM27.5,32.3c-.5,0-1,0-1.6-.2-1.9-.5-3.5-2.1-4-4-1-3.8,1.8-7.3,5.5-7.3s1,0,1.5.2c1.9.5,3.5,2.1,4,4,1,3.8-1.8,7.3-5.5,7.3ZM28.9,21.5c-.5-.1-1-.2-1.4-.2-1.7,0-3.2.8-4.2,2.1-1,1.3-1.3,3-.9,4.7.5,1.8,1.9,3.2,3.6,3.7.5.1,1,.2,1.5.2,1.6,0,3.2-.8,4.2-2.1,1-1.3,1.3-3,.9-4.7-.5-1.7-1.9-3.2-3.7-3.6ZM33.9,17.4c-4.3-3.1-9.4-5.3-13.8-7.2h-.2c0,0-.2,0-.2,0-.8,0-1.5.4-1.9,1.1-.4.8-.3,1.8.3,2.5l2.6,1.6h-9.8c-.5,0-1.3.4-1.5.6-.7.5-1.1,1.4-1,2.3,0,.9.5,1.7,1.2,2.2,0,0,.8.4,1.2.4h5.3l-6.4,4c-.8.6-1.3,1.6-1.3,2.8s.4,2.2,1.2,2.9c.7.6,1.4.8,2.1.8,1.6,0,3.2-1.3,4.3-2.3.2-.1.3-.3.5-.4.6,3.5,2.8,6.4,6,8,1.6.8,3.4,1.2,5.1,1.2,2.9,0,5.8-1.1,8.1-3.4,1-1,1.7-2.1,2.3-3.4,2.1-5.1.3-10.7-3.9-13.7ZM29.3,34.2c-.6.1-1.2.2-1.8.2-2.4,0-4.6-1.1-6.1-2.9-1.5-1.8-2-4.3-1.5-6.6.7-2.9,2.9-5.1,5.8-5.8.6-.1,1.2-.2,1.8-.2,2.4,0,4.6,1.1,6.1,2.9,1.5,1.8,2,4.3,1.5,6.6-.7,2.9-2.9,5.2-5.8,5.8ZM27.5,19.3c-.5,0-1.1,0-1.7.2-2.7.6-4.9,2.8-5.5,5.5-1.1,4.8,2.6,9,7.1,9s1.1,0,1.7-.2c2.7-.6,4.9-2.8,5.5-5.5,1.1-4.8-2.6-9-7.1-9ZM27.5,32.3c-.5,0-1,0-1.6-.2-1.9-.5-3.5-2.1-4-4-1-3.8,1.8-7.3,5.5-7.3s1,0,1.5.2c1.9.5,3.5,2.1,4,4,1,3.8-1.8,7.3-5.5,7.3ZM28.9,21.5c-.5-.1-1-.2-1.4-.2-1.7,0-3.2.8-4.2,2.1-1,1.3-1.3,3-.9,4.7.5,1.8,1.9,3.2,3.6,3.7.5.1,1,.2,1.5.2,1.6,0,3.2-.8,4.2-2.1,1-1.3,1.3-3,.9-4.7-.5-1.7-1.9-3.2-3.7-3.6ZM32.6,25.2c-.5-1.7-1.9-3.2-3.7-3.6-.5-.1-1-.2-1.4-.2-1.7,0-3.2.8-4.2,2.1-1,1.3-1.3,3-.9,4.7.5,1.8,1.9,3.2,3.6,3.7.5.1,1,.2,1.5.2,1.6,0,3.2-.8,4.2-2.1,1-1.3,1.3-3,.9-4.7ZM32.6,25.2c-.5-1.7-1.9-3.2-3.7-3.6-.5-.1-1-.2-1.4-.2-1.7,0-3.2.8-4.2,2.1-1,1.3-1.3,3-.9,4.7.5,1.8,1.9,3.2,3.6,3.7.5.1,1,.2,1.5.2,1.6,0,3.2-.8,4.2-2.1,1-1.3,1.3-3,.9-4.7ZM27.5,19.3c-.5,0-1.1,0-1.7.2-2.7.6-4.9,2.8-5.5,5.5-1.1,4.8,2.6,9,7.1,9s1.1,0,1.7-.2c2.7-.6,4.9-2.8,5.5-5.5,1.1-4.8-2.6-9-7.1-9ZM27.5,32.3c-.5,0-1,0-1.6-.2-1.9-.5-3.5-2.1-4-4-1-3.8,1.8-7.3,5.5-7.3s1,0,1.5.2c1.9.5,3.5,2.1,4,4,1,3.8-1.8,7.3-5.5,7.3ZM28.9,21.5c-.5-.1-1-.2-1.4-.2-1.7,0-3.2.8-4.2,2.1-1,1.3-1.3,3-.9,4.7.5,1.8,1.9,3.2,3.6,3.7.5.1,1,.2,1.5.2,1.6,0,3.2-.8,4.2-2.1,1-1.3,1.3-3,.9-4.7-.5-1.7-1.9-3.2-3.7-3.6ZM32.6,25.2c-.5-1.7-1.9-3.2-3.7-3.6-.5-.1-1-.2-1.4-.2-1.7,0-3.2.8-4.2,2.1-1,1.3-1.3,3-.9,4.7.5,1.8,1.9,3.2,3.6,3.7.5.1,1,.2,1.5.2,1.6,0,3.2-.8,4.2-2.1,1-1.3,1.3-3,.9-4.7ZM32.6,25.2c-.5-1.7-1.9-3.2-3.7-3.6-.5-.1-1-.2-1.4-.2-1.7,0-3.2.8-4.2,2.1-1,1.3-1.3,3-.9,4.7.5,1.8,1.9,3.2,3.6,3.7.5.1,1,.2,1.5.2,1.6,0,3.2-.8,4.2-2.1,1-1.3,1.3-3,.9-4.7ZM27.5,19.3c-.5,0-1.1,0-1.7.2-2.7.6-4.9,2.8-5.5,5.5-1.1,4.8,2.6,9,7.1,9s1.1,0,1.7-.2c2.7-.6,4.9-2.8,5.5-5.5,1.1-4.8-2.6-9-7.1-9ZM27.5,32.3c-.5,0-1,0-1.6-.2-1.9-.5-3.5-2.1-4-4-1-3.8,1.8-7.3,5.5-7.3s1,0,1.5.2c1.9.5,3.5,2.1,4,4,1,3.8-1.8,7.3-5.5,7.3ZM28.9,21.5c-.5-.1-1-.2-1.4-.2-1.7,0-3.2.8-4.2,2.1-1,1.3-1.3,3-.9,4.7.5,1.8,1.9,3.2,3.6,3.7.5.1,1,.2,1.5.2,1.6,0,3.2-.8,4.2-2.1,1-1.3,1.3-3,.9-4.7-.5-1.7-1.9-3.2-3.7-3.6ZM32.6,25.2c-.5-1.7-1.9-3.2-3.7-3.6-.5-.1-1-.2-1.4-.2-1.7,0-3.2.8-4.2,2.1-1,1.3-1.3,3-.9,4.7.5,1.8,1.9,3.2,3.6,3.7.5.1,1,.2,1.5.2,1.6,0,3.2-.8,4.2-2.1,1-1.3,1.3-3,.9-4.7ZM32.6,25.2c-.5-1.7-1.9-3.2-3.7-3.6-.5-.1-1-.2-1.4-.2-1.7,0-3.2.8-4.2,2.1-1,1.3-1.3,3-.9,4.7.5,1.8,1.9,3.2,3.6,3.7.5.1,1,.2,1.5.2,1.6,0,3.2-.8,4.2-2.1,1-1.3,1.3-3,.9-4.7ZM32.6,25.2c-.5-1.7-1.9-3.2-3.7-3.6-.5-.1-1-.2-1.4-.2-1.7,0-3.2.8-4.2,2.1-1,1.3-1.3,3-.9,4.7.5,1.8,1.9,3.2,3.6,3.7.5.1,1,.2,1.5.2,1.6,0,3.2-.8,4.2-2.1,1-1.3,1.3-3,.9-4.7ZM32.6,25.2c-.5-1.7-1.9-3.2-3.7-3.6-.5-.1-1-.2-1.4-.2-1.7,0-3.2.8-4.2,2.1-1,1.3-1.3,3-.9,4.7.5,1.8,1.9,3.2,3.6,3.7.5.1,1,.2,1.5.2,1.6,0,3.2-.8,4.2-2.1,1-1.3,1.3-3,.9-4.7ZM32.6,25.2c-.5-1.7-1.9-3.2-3.7-3.6-.5-.1-1-.2-1.4-.2-1.7,0-3.2.8-4.2,2.1-1,1.3-1.3,3-.9,4.7.5,1.8,1.9,3.2,3.6,3.7.5.1,1,.2,1.5.2,1.6,0,3.2-.8,4.2-2.1,1-1.3,1.3-3,.9-4.7ZM32.6,25.2c-.5-1.7-1.9-3.2-3.7-3.6-.5-.1-1-.2-1.4-.2-1.7,0-3.2.8-4.2,2.1-1,1.3-1.3,3-.9,4.7.5,1.8,1.9,3.2,3.6,3.7.5.1,1,.2,1.5.2,1.6,0,3.2-.8,4.2-2.1,1-1.3,1.3-3,.9-4.7ZM32.6,25.2c-.5-1.7-1.9-3.2-3.7-3.6-.5-.1-1-.2-1.4-.2-1.7,0-3.2.8-4.2,2.1-1,1.3-1.3,3-.9,4.7.5,1.8,1.9,3.2,3.6,3.7.5.1,1,.2,1.5.2,1.6,0,3.2-.8,4.2-2.1,1-1.3,1.3-3,.9-4.7ZM32.6,25.2c-.5-1.7-1.9-3.2-3.7-3.6-.5-.1-1-.2-1.4-.2-1.7,0-3.2.8-4.2,2.1-1,1.3-1.3,3-.9,4.7.5,1.8,1.9,3.2,3.6,3.7.5.1,1,.2,1.5.2,1.6,0,3.2-.8,4.2-2.1,1-1.3,1.3-3,.9-4.7ZM27.5,19.3c-.5,0-1.1,0-1.7.2-2.7.6-4.9,2.8-5.5,5.5-1.1,4.8,2.6,9,7.1,9s1.1,0,1.7-.2c2.7-.6,4.9-2.8,5.5-5.5,1.1-4.8-2.6-9-7.1-9ZM27.5,32.3c-.5,0-1,0-1.6-.2-1.9-.5-3.5-2.1-4-4-1-3.8,1.8-7.3,5.5-7.3s1,0,1.5.2c1.9.5,3.5,2.1,4,4,1,3.8-1.8,7.3-5.5,7.3ZM28.9,21.5c-.5-.1-1-.2-1.4-.2-1.7,0-3.2.8-4.2,2.1-1,1.3-1.3,3-.9,4.7.5,1.8,1.9,3.2,3.6,3.7.5.1,1,.2,1.5.2,1.6,0,3.2-.8,4.2-2.1,1-1.3,1.3-3,.9-4.7-.5-1.7-1.9-3.2-3.7-3.6ZM32.6,25.2c-.5-1.7-1.9-3.2-3.7-3.6-.5-.1-1-.2-1.4-.2-1.7,0-3.2.8-4.2,2.1-1,1.3-1.3,3-.9,4.7.5,1.8,1.9,3.2,3.6,3.7.5.1,1,.2,1.5.2,1.6,0,3.2-.8,4.2-2.1,1-1.3,1.3-3,.9-4.7ZM32.6,25.2c-.5-1.7-1.9-3.2-3.7-3.6-.5-.1-1-.2-1.4-.2-1.7,0-3.2.8-4.2,2.1-1,1.3-1.3,3-.9,4.7.5,1.8,1.9,3.2,3.6,3.7.5.1,1,.2,1.5.2,1.6,0,3.2-.8,4.2-2.1,1-1.3,1.3-3,.9-4.7ZM27.5,19.3c-.5,0-1.1,0-1.7.2-2.7.6-4.9,2.8-5.5,5.5-1.1,4.8,2.6,9,7.1,9s1.1,0,1.7-.2c2.7-.6,4.9-2.8,5.5-5.5,1.1-4.8-2.6-9-7.1-9ZM27.5,32.3c-.5,0-1,0-1.6-.2-1.9-.5-3.5-2.1-4-4-1-3.8,1.8-7.3,5.5-7.3s1,0,1.5.2c1.9.5,3.5,2.1,4,4,1,3.8-1.8,7.3-5.5,7.3ZM28.9,21.5c-.5-.1-1-.2-1.4-.2-1.7,0-3.2.8-4.2,2.1-1,1.3-1.3,3-.9,4.7.5,1.8,1.9,3.2,3.6,3.7.5.1,1,.2,1.5.2,1.6,0,3.2-.8,4.2-2.1,1-1.3,1.3-3,.9-4.7-.5-1.7-1.9-3.2-3.7-3.6ZM32.6,25.2c-.5-1.7-1.9-3.2-3.7-3.6-.5-.1-1-.2-1.4-.2-1.7,0-3.2.8-4.2,2.1-1,1.3-1.3,3-.9,4.7.5,1.8,1.9,3.2,3.6,3.7.5.1,1,.2,1.5.2,1.6,0,3.2-.8,4.2-2.1,1-1.3,1.3-3,.9-4.7ZM32.6,25.2c-.5-1.7-1.9-3.2-3.7-3.6-.5-.1-1-.2-1.4-.2-1.7,0-3.2.8-4.2,2.1-1,1.3-1.3,3-.9,4.7.5,1.8,1.9,3.2,3.6,3.7.5.1,1,.2,1.5.2,1.6,0,3.2-.8,4.2-2.1,1-1.3,1.3-3,.9-4.7ZM27.5,19.3c-.5,0-1.1,0-1.7.2-2.7.6-4.9,2.8-5.5,5.5-1.1,4.8,2.6,9,7.1,9s1.1,0,1.7-.2c2.7-.6,4.9-2.8,5.5-5.5,1.1-4.8-2.6-9-7.1-9ZM27.5,32.3c-.5,0-1,0-1.6-.2-1.9-.5-3.5-2.1-4-4-1-3.8,1.8-7.3,5.5-7.3s1,0,1.5.2c1.9.5,3.5,2.1,4,4,1,3.8-1.8,7.3-5.5,7.3ZM28.9,21.5c-.5-.1-1-.2-1.4-.2-1.7,0-3.2.8-4.2,2.1-1,1.3-1.3,3-.9,4.7.5,1.8,1.9,3.2,3.6,3.7.5.1,1,.2,1.5.2,1.6,0,3.2-.8,4.2-2.1,1-1.3,1.3-3,.9-4.7-.5-1.7-1.9-3.2-3.7-3.6ZM27.5,19.3c-.5,0-1.1,0-1.7.2-2.7.6-4.9,2.8-5.5,5.5-1.1,4.8,2.6,9,7.1,9s1.1,0,1.7-.2c2.7-.6,4.9-2.8,5.5-5.5,1.1-4.8-2.6-9-7.1-9ZM27.5,32.3c-.5,0-1,0-1.6-.2-1.9-.5-3.5-2.1-4-4-1-3.8,1.8-7.3,5.5-7.3s1,0,1.5.2c1.9.5,3.5,2.1,4,4,1,3.8-1.8,7.3-5.5,7.3ZM28.9,21.5c-.5-.1-1-.2-1.4-.2-1.7,0-3.2.8-4.2,2.1-1,1.3-1.3,3-.9,4.7.5,1.8,1.9,3.2,3.6,3.7.5.1,1,.2,1.5.2,1.6,0,3.2-.8,4.2-2.1,1-1.3,1.3-3,.9-4.7-.5-1.7-1.9-3.2-3.7-3.6ZM33.9,17.4c-4.3-3.1-9.4-5.3-13.8-7.2h-.2c0,0-.2,0-.2,0-.8,0-1.5.4-1.9,1.1-.4.8-.3,1.8.3,2.5l2.6,1.6h-9.8c-.5,0-1.3.4-1.5.6-.7.5-1.1,1.4-1,2.3,0,.9.5,1.7,1.2,2.2,0,0,.8.4,1.2.4h5.3l-6.4,4c-.8.6-1.3,1.6-1.3,2.8s.4,2.2,1.2,2.9c.7.6,1.4.8,2.1.8,1.6,0,3.2-1.3,4.3-2.3.2-.1.3-.3.5-.4.6,3.5,2.8,6.4,6,8,1.6.8,3.4,1.2,5.1,1.2,2.9,0,5.8-1.1,8.1-3.4,1-1,1.7-2.1,2.3-3.4,2.1-5.1.3-10.7-3.9-13.7ZM29.3,34.2c-.6.1-1.2.2-1.8.2-2.4,0-4.6-1.1-6.1-2.9-1.5-1.8-2-4.3-1.5-6.6.7-2.9,2.9-5.1,5.8-5.8.6-.1,1.2-.2,1.8-.2,2.4,0,4.6,1.1,6.1,2.9,1.5,1.8,2,4.3,1.5,6.6-.7,2.9-2.9,5.2-5.8,5.8ZM27.5,19.3c-.5,0-1.1,0-1.7.2-2.7.6-4.9,2.8-5.5,5.5-1.1,4.8,2.6,9,7.1,9s1.1,0,1.7-.2c2.7-.6,4.9-2.8,5.5-5.5,1.1-4.8-2.6-9-7.1-9ZM27.5,32.3c-.5,0-1,0-1.6-.2-1.9-.5-3.5-2.1-4-4-1-3.8,1.8-7.3,5.5-7.3s1,0,1.5.2c1.9.5,3.5,2.1,4,4,1,3.8-1.8,7.3-5.5,7.3ZM28.9,21.5c-.5-.1-1-.2-1.4-.2-1.7,0-3.2.8-4.2,2.1-1,1.3-1.3,3-.9,4.7.5,1.8,1.9,3.2,3.6,3.7.5.1,1,.2,1.5.2,1.6,0,3.2-.8,4.2-2.1,1-1.3,1.3-3,.9-4.7-.5-1.7-1.9-3.2-3.7-3.6ZM32.6,25.2c-.5-1.7-1.9-3.2-3.7-3.6-.5-.1-1-.2-1.4-.2-1.7,0-3.2.8-4.2,2.1-1,1.3-1.3,3-.9,4.7.5,1.8,1.9,3.2,3.6,3.7.5.1,1,.2,1.5.2,1.6,0,3.2-.8,4.2-2.1,1-1.3,1.3-3,.9-4.7ZM32.6,25.2c-.5-1.7-1.9-3.2-3.7-3.6-.5-.1-1-.2-1.4-.2-1.7,0-3.2.8-4.2,2.1-1,1.3-1.3,3-.9,4.7.5,1.8,1.9,3.2,3.6,3.7.5.1,1,.2,1.5.2,1.6,0,3.2-.8,4.2-2.1,1-1.3,1.3-3,.9-4.7ZM27.5,19.3c-.5,0-1.1,0-1.7.2-2.7.6-4.9,2.8-5.5,5.5-1.1,4.8,2.6,9,7.1,9s1.1,0,1.7-.2c2.7-.6,4.9-2.8,5.5-5.5,1.1-4.8-2.6-9-7.1-9ZM27.5,32.3c-.5,0-1,0-1.6-.2-1.9-.5-3.5-2.1-4-4-1-3.8,1.8-7.3,5.5-7.3s1,0,1.5.2c1.9.5,3.5,2.1,4,4,1,3.8-1.8,7.3-5.5,7.3ZM28.9,21.5c-.5-.1-1-.2-1.4-.2-1.7,0-3.2.8-4.2,2.1-1,1.3-1.3,3-.9,4.7.5,1.8,1.9,3.2,3.6,3.7.5.1,1,.2,1.5.2,1.6,0,3.2-.8,4.2-2.1,1-1.3,1.3-3,.9-4.7-.5-1.7-1.9-3.2-3.7-3.6ZM32.6,25.2c-.5-1.7-1.9-3.2-3.7-3.6-.5-.1-1-.2-1.4-.2-1.7,0-3.2.8-4.2,2.1-1,1.3-1.3,3-.9,4.7.5,1.8,1.9,3.2,3.6,3.7.5.1,1,.2,1.5.2,1.6,0,3.2-.8,4.2-2.1,1-1.3,1.3-3,.9-4.7ZM32.6,25.2c-.5-1.7-1.9-3.2-3.7-3.6-.5-.1-1-.2-1.4-.2-1.7,0-3.2.8-4.2,2.1-1,1.3-1.3,3-.9,4.7.5,1.8,1.9,3.2,3.6,3.7.5.1,1,.2,1.5.2,1.6,0,3.2-.8,4.2-2.1,1-1.3,1.3-3,.9-4.7ZM27.5,19.3c-.5,0-1.1,0-1.7.2-2.7.6-4.9,2.8-5.5,5.5-1.1,4.8,2.6,9,7.1,9s1.1,0,1.7-.2c2.7-.6,4.9-2.8,5.5-5.5,1.1-4.8-2.6-9-7.1-9ZM27.5,32.3c-.5,0-1,0-1.6-.2-1.9-.5-3.5-2.1-4-4-1-3.8,1.8-7.3,5.5-7.3s1,0,1.5.2c1.9.5,3.5,2.1,4,4,1,3.8-1.8,7.3-5.5,7.3ZM28.9,21.5c-.5-.1-1-.2-1.4-.2-1.7,0-3.2.8-4.2,2.1-1,1.3-1.3,3-.9,4.7.5,1.8,1.9,3.2,3.6,3.7.5.1,1,.2,1.5.2,1.6,0,3.2-.8,4.2-2.1,1-1.3,1.3-3,.9-4.7-.5-1.7-1.9-3.2-3.7-3.6ZM32.6,25.2c-.5-1.7-1.9-3.2-3.7-3.6-.5-.1-1-.2-1.4-.2-1.7,0-3.2.8-4.2,2.1-1,1.3-1.3,3-.9,4.7.5,1.8,1.9,3.2,3.6,3.7.5.1,1,.2,1.5.2,1.6,0,3.2-.8,4.2-2.1,1-1.3,1.3-3,.9-4.7ZM32.6,25.2c-.5-1.7-1.9-3.2-3.7-3.6-.5-.1-1-.2-1.4-.2-1.7,0-3.2.8-4.2,2.1-1,1.3-1.3,3-.9,4.7.5,1.8,1.9,3.2,3.6,3.7.5.1,1,.2,1.5.2,1.6,0,3.2-.8,4.2-2.1,1-1.3,1.3-3,.9-4.7ZM27.5,19.3c-.5,0-1.1,0-1.7.2-2.7.6-4.9,2.8-5.5,5.5-1.1,4.8,2.6,9,7.1,9s1.1,0,1.7-.2c2.7-.6,4.9-2.8,5.5-5.5,1.1-4.8-2.6-9-7.1-9ZM27.5,32.3c-.5,0-1,0-1.6-.2-1.9-.5-3.5-2.1-4-4-1-3.8,1.8-7.3,5.5-7.3s1,0,1.5.2c1.9.5,3.5,2.1,4,4,1,3.8-1.8,7.3-5.5,7.3ZM28.9,21.5c-.5-.1-1-.2-1.4-.2-1.7,0-3.2.8-4.2,2.1-1,1.3-1.3,3-.9,4.7.5,1.8,1.9,3.2,3.6,3.7.5.1,1,.2,1.5.2,1.6,0,3.2-.8,4.2-2.1,1-1.3,1.3-3,.9-4.7-.5-1.7-1.9-3.2-3.7-3.6ZM27.5,19.3c-.5,0-1.1,0-1.7.2-2.7.6-4.9,2.8-5.5,5.5-1.1,4.8,2.6,9,7.1,9s1.1,0,1.7-.2c2.7-.6,4.9-2.8,5.5-5.5,1.1-4.8-2.6-9-7.1-9ZM27.5,32.3c-.5,0-1,0-1.6-.2-1.9-.5-3.5-2.1-4-4-1-3.8,1.8-7.3,5.5-7.3s1,0,1.5.2c1.9.5,3.5,2.1,4,4,1,3.8-1.8,7.3-5.5,7.3ZM28.9,21.5c-.5-.1-1-.2-1.4-.2-1.7,0-3.2.8-4.2,2.1-1,1.3-1.3,3-.9,4.7.5,1.8,1.9,3.2,3.6,3.7.5.1,1,.2,1.5.2,1.6,0,3.2-.8,4.2-2.1,1-1.3,1.3-3,.9-4.7-.5-1.7-1.9-3.2-3.7-3.6ZM33.9,17.4c-4.3-3.1-9.4-5.3-13.8-7.2h-.2c0,0-.2,0-.2,0-.8,0-1.5.4-1.9,1.1-.4.8-.3,1.8.3,2.5l2.6,1.6h-9.8c-.5,0-1.3.4-1.5.6-.7.5-1.1,1.4-1,2.3,0,.9.5,1.7,1.2,2.2,0,0,.8.4,1.2.4h5.3l-6.4,4c-.8.6-1.3,1.6-1.3,2.8s.4,2.2,1.2,2.9c.7.6,1.4.8,2.1.8,1.6,0,3.2-1.3,4.3-2.3.2-.1.3-.3.5-.4.6,3.5,2.8,6.4,6,8,1.6.8,3.4,1.2,5.1,1.2,2.9,0,5.8-1.1,8.1-3.4,1-1,1.7-2.1,2.3-3.4,2.1-5.1.3-10.7-3.9-13.7ZM29.3,34.2c-.6.1-1.2.2-1.8.2-2.4,0-4.6-1.1-6.1-2.9-1.5-1.8-2-4.3-1.5-6.6.7-2.9,2.9-5.1,5.8-5.8.6-.1,1.2-.2,1.8-.2,2.4,0,4.6,1.1,6.1,2.9,1.5,1.8,2,4.3,1.5,6.6-.7,2.9-2.9,5.2-5.8,5.8ZM27.5,19.3c-.5,0-1.1,0-1.7.2-2.7.6-4.9,2.8-5.5,5.5-1.1,4.8,2.6,9,7.1,9s1.1,0,1.7-.2c2.7-.6,4.9-2.8,5.5-5.5,1.1-4.8-2.6-9-7.1-9ZM27.5,32.3c-.5,0-1,0-1.6-.2-1.9-.5-3.5-2.1-4-4-1-3.8,1.8-7.3,5.5-7.3s1,0,1.5.2c1.9.5,3.5,2.1,4,4,1,3.8-1.8,7.3-5.5,7.3ZM28.9,21.5c-.5-.1-1-.2-1.4-.2-1.7,0-3.2.8-4.2,2.1-1,1.3-1.3,3-.9,4.7.5,1.8,1.9,3.2,3.6,3.7.5.1,1,.2,1.5.2,1.6,0,3.2-.8,4.2-2.1,1-1.3,1.3-3,.9-4.7-.5-1.7-1.9-3.2-3.7-3.6ZM32.6,25.2c-.5-1.7-1.9-3.2-3.7-3.6-.5-.1-1-.2-1.4-.2-1.7,0-3.2.8-4.2,2.1-1,1.3-1.3,3-.9,4.7.5,1.8,1.9,3.2,3.6,3.7.5.1,1,.2,1.5.2,1.6,0,3.2-.8,4.2-2.1,1-1.3,1.3-3,.9-4.7ZM32.6,25.2c-.5-1.7-1.9-3.2-3.7-3.6-.5-.1-1-.2-1.4-.2-1.7,0-3.2.8-4.2,2.1-1,1.3-1.3,3-.9,4.7.5,1.8,1.9,3.2,3.6,3.7.5.1,1,.2,1.5.2,1.6,0,3.2-.8,4.2-2.1,1-1.3,1.3-3,.9-4.7ZM27.5,19.3c-.5,0-1.1,0-1.7.2-2.7.6-4.9,2.8-5.5,5.5-1.1,4.8,2.6,9,7.1,9s1.1,0,1.7-.2c2.7-.6,4.9-2.8,5.5-5.5,1.1-4.8-2.6-9-7.1-9ZM27.5,32.3c-.5,0-1,0-1.6-.2-1.9-.5-3.5-2.1-4-4-1-3.8,1.8-7.3,5.5-7.3s1,0,1.5.2c1.9.5,3.5,2.1,4,4,1,3.8-1.8,7.3-5.5,7.3ZM28.9,21.5c-.5-.1-1-.2-1.4-.2-1.7,0-3.2.8-4.2,2.1-1,1.3-1.3,3-.9,4.7.5,1.8,1.9,3.2,3.6,3.7.5.1,1,.2,1.5.2,1.6,0,3.2-.8,4.2-2.1,1-1.3,1.3-3,.9-4.7-.5-1.7-1.9-3.2-3.7-3.6ZM32.6,25.2c-.5-1.7-1.9-3.2-3.7-3.6-.5-.1-1-.2-1.4-.2-1.7,0-3.2.8-4.2,2.1-1,1.3-1.3,3-.9,4.7.5,1.8,1.9,3.2,3.6,3.7.5.1,1,.2,1.5.2,1.6,0,3.2-.8,4.2-2.1,1-1.3,1.3-3,.9-4.7ZM32.6,25.2c-.5-1.7-1.9-3.2-3.7-3.6-.5-.1-1-.2-1.4-.2-1.7,0-3.2.8-4.2,2.1-1,1.3-1.3,3-.9,4.7.5,1.8,1.9,3.2,3.6,3.7.5.1,1,.2,1.5.2,1.6,0,3.2-.8,4.2-2.1,1-1.3,1.3-3,.9-4.7ZM27.5,19.3c-.5,0-1.1,0-1.7.2-2.7.6-4.9,2.8-5.5,5.5-1.1,4.8,2.6,9,7.1,9s1.1,0,1.7-.2c2.7-.6,4.9-2.8,5.5-5.5,1.1-4.8-2.6-9-7.1-9ZM27.5,32.3c-.5,0-1,0-1.6-.2-1.9-.5-3.5-2.1-4-4-1-3.8,1.8-7.3,5.5-7.3s1,0,1.5.2c1.9.5,3.5,2.1,4,4,1,3.8-1.8,7.3-5.5,7.3ZM28.9,21.5c-.5-.1-1-.2-1.4-.2-1.7,0-3.2.8-4.2,2.1-1,1.3-1.3,3-.9,4.7.5,1.8,1.9,3.2,3.6,3.7.5.1,1,.2,1.5.2,1.6,0,3.2-.8,4.2-2.1,1-1.3,1.3-3,.9-4.7-.5-1.7-1.9-3.2-3.7-3.6ZM32.6,25.2c-.5-1.7-1.9-3.2-3.7-3.6-.5-.1-1-.2-1.4-.2-1.7,0-3.2.8-4.2,2.1-1,1.3-1.3,3-.9,4.7.5,1.8,1.9,3.2,3.6,3.7.5.1,1,.2,1.5.2,1.6,0,3.2-.8,4.2-2.1,1-1.3,1.3-3,.9-4.7ZM32.6,25.2c-.5-1.7-1.9-3.2-3.7-3.6-.5-.1-1-.2-1.4-.2-1.7,0-3.2.8-4.2,2.1-1,1.3-1.3,3-.9,4.7.5,1.8,1.9,3.2,3.6,3.7.5.1,1,.2,1.5.2,1.6,0,3.2-.8,4.2-2.1,1-1.3,1.3-3,.9-4.7ZM32.6,25.2c-.5-1.7-1.9-3.2-3.7-3.6-.5-.1-1-.2-1.4-.2-1.7,0-3.2.8-4.2,2.1-1,1.3-1.3,3-.9,4.7.5,1.8,1.9,3.2,3.6,3.7.5.1,1,.2,1.5.2,1.6,0,3.2-.8,4.2-2.1,1-1.3,1.3-3,.9-4.7ZM32.6,25.2c-.5-1.7-1.9-3.2-3.7-3.6-.5-.1-1-.2-1.4-.2-1.7,0-3.2.8-4.2,2.1-1,1.3-1.3,3-.9,4.7.5,1.8,1.9,3.2,3.6,3.7.5.1,1,.2,1.5.2,1.6,0,3.2-.8,4.2-2.1,1-1.3,1.3-3,.9-4.7ZM27.5,19.3c-.5,0-1.1,0-1.7.2-2.7.6-4.9,2.8-5.5,5.5-1.1,4.8,2.6,9,7.1,9s1.1,0,1.7-.2c2.7-.6,4.9-2.8,5.5-5.5,1.1-4.8-2.6-9-7.1-9ZM27.5,32.3c-.5,0-1,0-1.6-.2-1.9-.5-3.5-2.1-4-4-1-3.8,1.8-7.3,5.5-7.3s1,0,1.5.2c1.9.5,3.5,2.1,4,4,1,3.8-1.8,7.3-5.5,7.3ZM28.9,21.5c-.5-.1-1-.2-1.4-.2-1.7,0-3.2.8-4.2,2.1-1,1.3-1.3,3-.9,4.7.5,1.8,1.9,3.2,3.6,3.7.5.1,1,.2,1.5.2,1.6,0,3.2-.8,4.2-2.1,1-1.3,1.3-3,.9-4.7-.5-1.7-1.9-3.2-3.7-3.6ZM32.6,25.2c-.5-1.7-1.9-3.2-3.7-3.6-.5-.1-1-.2-1.4-.2-1.7,0-3.2.8-4.2,2.1-1,1.3-1.3,3-.9,4.7.5,1.8,1.9,3.2,3.6,3.7.5.1,1,.2,1.5.2,1.6,0,3.2-.8,4.2-2.1,1-1.3,1.3-3,.9-4.7ZM32.6,25.2c-.5-1.7-1.9-3.2-3.7-3.6-.5-.1-1-.2-1.4-.2-1.7,0-3.2.8-4.2,2.1-1,1.3-1.3,3-.9,4.7.5,1.8,1.9,3.2,3.6,3.7.5.1,1,.2,1.5.2,1.6,0,3.2-.8,4.2-2.1,1-1.3,1.3-3,.9-4.7ZM27.5,19.3c-.5,0-1.1,0-1.7.2-2.7.6-4.9,2.8-5.5,5.5-1.1,4.8,2.6,9,7.1,9s1.1,0,1.7-.2c2.7-.6,4.9-2.8,5.5-5.5,1.1-4.8-2.6-9-7.1-9ZM27.5,32.3c-.5,0-1,0-1.6-.2-1.9-.5-3.5-2.1-4-4-1-3.8,1.8-7.3,5.5-7.3s1,0,1.5.2c1.9.5,3.5,2.1,4,4,1,3.8-1.8,7.3-5.5,7.3ZM28.9,21.5c-.5-.1-1-.2-1.4-.2-1.7,0-3.2.8-4.2,2.1-1,1.3-1.3,3-.9,4.7.5,1.8,1.9,3.2,3.6,3.7.5.1,1,.2,1.5.2,1.6,0,3.2-.8,4.2-2.1,1-1.3,1.3-3,.9-4.7-.5-1.7-1.9-3.2-3.7-3.6ZM32.6,25.2c-.5-1.7-1.9-3.2-3.7-3.6-.5-.1-1-.2-1.4-.2-1.7,0-3.2.8-4.2,2.1-1,1.3-1.3,3-.9,4.7.5,1.8,1.9,3.2,3.6,3.7.5.1,1,.2,1.5.2,1.6,0,3.2-.8,4.2-2.1,1-1.3,1.3-3,.9-4.7ZM32.6,25.2c-.5-1.7-1.9-3.2-3.7-3.6-.5-.1-1-.2-1.4-.2-1.7,0-3.2.8-4.2,2.1-1,1.3-1.3,3-.9,4.7.5,1.8,1.9,3.2,3.6,3.7.5.1,1,.2,1.5.2,1.6,0,3.2-.8,4.2-2.1,1-1.3,1.3-3,.9-4.7ZM32.6,25.2c-.5-1.7-1.9-3.2-3.7-3.6-.5-.1-1-.2-1.4-.2-1.7,0-3.2.8-4.2,2.1-1,1.3-1.3,3-.9,4.7.5,1.8,1.9,3.2,3.6,3.7.5.1,1,.2,1.5.2,1.6,0,3.2-.8,4.2-2.1,1-1.3,1.3-3,.9-4.7ZM32.6,25.2c-.5-1.7-1.9-3.2-3.7-3.6-.5-.1-1-.2-1.4-.2-1.7,0-3.2.8-4.2,2.1-1,1.3-1.3,3-.9,4.7.5,1.8,1.9,3.2,3.6,3.7.5.1,1,.2,1.5.2,1.6,0,3.2-.8,4.2-2.1,1-1.3,1.3-3,.9-4.7ZM27.5,19.3c-.5,0-1.1,0-1.7.2-2.7.6-4.9,2.8-5.5,5.5-1.1,4.8,2.6,9,7.1,9s1.1,0,1.7-.2c2.7-.6,4.9-2.8,5.5-5.5,1.1-4.8-2.6-9-7.1-9ZM27.5,32.3c-.5,0-1,0-1.6-.2-1.9-.5-3.5-2.1-4-4-1-3.8,1.8-7.3,5.5-7.3s1,0,1.5.2c1.9.5,3.5,2.1,4,4,1,3.8-1.8,7.3-5.5,7.3ZM28.9,21.5c-.5-.1-1-.2-1.4-.2-1.7,0-3.2.8-4.2,2.1-1,1.3-1.3,3-.9,4.7.5,1.8,1.9,3.2,3.6,3.7.5.1,1,.2,1.5.2,1.6,0,3.2-.8,4.2-2.1,1-1.3,1.3-3,.9-4.7-.5-1.7-1.9-3.2-3.7-3.6ZM32.6,25.2c-.5-1.7-1.9-3.2-3.7-3.6-.5-.1-1-.2-1.4-.2-1.7,0-3.2.8-4.2,2.1-1,1.3-1.3,3-.9,4.7.5,1.8,1.9,3.2,3.6,3.7.5.1,1,.2,1.5.2,1.6,0,3.2-.8,4.2-2.1,1-1.3,1.3-3,.9-4.7ZM32.6,25.2c-.5-1.7-1.9-3.2-3.7-3.6-.5-.1-1-.2-1.4-.2-1.7,0-3.2.8-4.2,2.1-1,1.3-1.3,3-.9,4.7.5,1.8,1.9,3.2,3.6,3.7.5.1,1,.2,1.5.2,1.6,0,3.2-.8,4.2-2.1,1-1.3,1.3-3,.9-4.7ZM27.5,19.3c-.5,0-1.1,0-1.7.2-2.7.6-4.9,2.8-5.5,5.5-1.1,4.8,2.6,9,7.1,9s1.1,0,1.7-.2c2.7-.6,4.9-2.8,5.5-5.5,1.1-4.8-2.6-9-7.1-9ZM27.5,32.3c-.5,0-1,0-1.6-.2-1.9-.5-3.5-2.1-4-4-1-3.8,1.8-7.3,5.5-7.3s1,0,1.5.2c1.9.5,3.5,2.1,4,4,1,3.8-1.8,7.3-5.5,7.3ZM28.9,21.5c-.5-.1-1-.2-1.4-.2-1.7,0-3.2.8-4.2,2.1-1,1.3-1.3,3-.9,4.7.5,1.8,1.9,3.2,3.6,3.7.5.1,1,.2,1.5.2,1.6,0,3.2-.8,4.2-2.1,1-1.3,1.3-3,.9-4.7-.5-1.7-1.9-3.2-3.7-3.6Z"/>
    </g>
    <circle class="st2" cx="27.5" cy="26.6" r="3.4"/>
  </g>
</svg>