<?xml version="1.0" encoding="UTF-8"?>
<svg id="Capa_1" xmlns="http://www.w3.org/2000/svg" version="1.1" viewBox="0 0 245.7 242.3">
  <!-- Generator: Adobe Illustrator 29.4.0, SVG Export Plug-In . SVG Version: 2.1.0 Build 152)  -->
  <defs>
    <style>
      .st0 {
        fill: #d00000;
      }
    </style>
  </defs>
  <path class="st0" d="M168.4,53.3c2.7,2.1,5.9,4.2,7.9,7.1s.9,1.3,1.3,1.9c1.7,2.5,2.7,5,3.9,7.7s1.1,1.8.5,2.4c.8-.4.8,1.4.7,1.9-.1,1.3-1.5,1.3-2.2,1.9s-.3.8-.4.8c-.4.3-2.6-.7-2.5,1.1l-.2-.4c-.3.2-.7.3-1.1.4s0,.3-.3.3-1.5-1-1.7-1.3c-.5-.6-.6-2.2-1-3-1.4-3.7-3.3-7-6.3-9.5-3.1-2.6-5.6-5-9.5-6.4s-2.9-1.1-3.4-1.1-.4.3-1.2,0-.2-.3-.3-.3c-1.2-.6-4.9-1.2-5.3-2.5s-.2-1-.2-1.2c0-.2.3-.4.3-.6s0-.4,0-.6c0-.3.3-1.4.3-1.5.1-.3.8-.7.9-.7.1-.2,0-.6.2-.9s.4-.2.6-.3c.5-.4,1.5-1.4,2.2-1.5s2.2,0,2.5,0c5.1,1.4,10.1,3.1,14.2,6.4Z"/>
  <path class="st0" d="M169.5,32.1c.1,0,.9,0,1.3.2,2.9.9,6.2,2.2,9,3.7s.5.3,1.1.5c1.4.6,2.8,1.5,4.1,2.1s3.6,2.3,5.3,3.3,2.2,1.9,3.5,2.9.5.1.7.3.1.5.3.6.4,0,.5.1.2.4.3.6c.2.2.9.5,1.1.7,2.1,2,4.1,4.3,6.1,6.5s3.2,3.8,4.8,6.1.9,1.2,1.2,1.6.3,1,.4,1.1c0,0,.3,0,.4.1.2.2.4,1,.6,1.3,1.4,2.2,3.6,5.2,4.5,7.6s.3.9.6,1.4c1.6,3.2,2.6,6.7,3.7,10.2s.9,2.4,1.3,3.7c1.2,4.3,1.7,8.9,2.2,13.4s.5,1.9.4,2.7-.6.3-.3.8.5-.4.5.7.2,2.1.3,3.1-.2.9-.2,1c0,1.1.2,2,.2,3.2s-.1,2.7-.3,3-.4,0-.2.3.2,0,.3,0c.2.5-.2,3.3-.3,3.9s.1.4.1.7c0,.4-.4.9-.4,1.3s.2.4.3.7c.1,1-.6,3.9-.9,5s0,1-.2,1-.4-.4-.5-.3c-.2.3.4.5.4.7.3.8-2,6.5-2.5,7.6s-.4.9-.5,1.3-1.1,2.4-1.2,2.5-.7-.4-.9.6.1.5.1.6c0,.2-.6.3-.8.2.6.7,0,.7-.2,1.1s-.3.7-.5,1.1c-.9,1.5-2.2,2.7-3.2,3.7s0,.5-.2.6-.3,0-.4,0c-.7.3-1,1.1-1.6,1.5-4.2,3.9-9.7,8.5-15.2,9.9s-4.2,1.9-4.9,2.2-.4.5-.5.5c-.2,0-.5,0-.8,0s0,.3,0,.3c-.2.2-2.4,1-2.8,1.1-1.1.4-1.4.3-2.3.5s-1.2.6-1.7.8c-6.4,2.5-13,4.2-19.7,5.8-3.1.7-6.1,1.8-9.2,2.5-1.7.4-4.3.1-6.1.2s-2.7,0-2.8.1c-.3.2,0,.7.1.9.4,2.7,1.1,5.2,1.6,8,.2,1.2.9,3.4.9,4.4.2,2.4.9,4.9.6,7.4s.1.4.2.9c.4,2.5-.5,7.1-1,9.7s-.6,1.6-.6,2,.2.6,0,1.1-.6.8-.7,1.1c-.4,1.3-.9,1.8-1.4,3.1s-.2.8-.4,1.2-.6.9-.7.9c-.2.1-.6,0-.8.1s-.2.4-.5.5c-.5.2-1.4.1-2,.2-3,.6-6.8,2.5-9.9,1.4s-3.1-1.7-3.3-1.9c-.4-.3-1-1-1.5-1.5s-.5-1-1.1-.8-.4,1.2-.6,1.8c-1.3,3.1-3.1,6.2-6,8.1s-5.4,2.7-8.5,2.3-1.2-.2-1.2-.2c-.1,0-.2-.4-.3-.5-.8-.6-2.3-1.8-2.7-2.8s.1-.5,0-.6-.3,0-.4,0-.2-.7-.3-.7c-.2,0-.5,0-.7,0s-.5-1.2-.6-1.4c-.6-1.5-1.6-4.3-1.9-6s0-2.8-.4-3c-.7.3-.5,1.2-.7,1.7s-.9,1.3-1,1.3c-.5.5-1.7.9-2.2,1.5s-1.4,1.2-1.9,1.7c-1.1.8-3.2,1.5-4.6,1.6s-3.3-.2-3.4-.3,0-.4-.2-.5c-.1-.2-.6-.1-.7-.5-1.2-2.2-2.4-3.9-3.2-6.4-3-8.8-.9-19.9.9-28.8-.3-.6,1-3.7.9-3.8-.7,0-1.2.3-1.9.4l-3.3-.6.3-.3h-5.6c0-.4.3-.2.3-.4s-.2-.2-.4-.2c-1.2-.1-2.7,0-3.9,0s-1.9-.6-2.8-.4c.2-.8-.8-.3-1.2-.3s-.2-.2-.7-.3-.5-.5-.7,0,0,.3,0,.4c-.2.3-1,.1-1.2-.2h.7c-.6-.8-.9-.6-1.6-.8-1.7-.4-3.6-1.1-5.2-1.2s-2.8-1-4.1-1.5c-10.5-4.3-21.8-9.5-28-19.4-.7-1.1-1.2-2.3-1.8-3.4,0-.4.2,0,.3,0,.3.4.9,1.2.9,1.7,0,.5.7.7.7.7,0,.1,0,.6.2.8h.4c-.1.4.3,1.1.8,1.4s.3,0,.4,0-.2.2,0,.4.3.3.4.4,0,.4.1.6.7,0,.8.4c.2-.3-.3-.5-.5-.8-1.8-2.4-3.4-5.4-4.7-8.1s-1.1-2.7-1.2-2.8-.3,0-.4,0v.4c-.2-.1-.4-.3-.5-.4-.2-.3-1.2-3.4-1.1-3.5.5.5.9,1.6,1.1,2.3s0,1.5.7.9c-1.6-3.9-2.9-8.2-3.4-12.4s0-1.5,0-2.2-.6-.5,0-1.1c-.2,0-.3,0-.4-.2-.2-.4-.3-2.2-.2-2.7s.3-1,.3-1.2-.3-.2-.4-.2.1-.3.1-.5c-.3-5.5.5-12.2,1.4-17.6s1-3.1,1.1-4.3c.2-1.9,1-4.1,1.5-6.1.9-3.2,1.6-6.3,2.8-9.3s2.5-5.3,4.1-7.9,3-4.1,4.4-5.8c6.7-7.8,16.4-16.2,24.8-22.3s19.7-11.3,30.4-14.9c8.9-3,19-5.7,28.4-6.5s21.9-1.1,32.6,0,8.9,1.4,13.2,2.4,6,1.4,7.8,2.4ZM132.5,35.1c-.2,0-.4,0-.4.3h.4s0-.3,0-.3ZM185.2,49.6c-3.4-2.2-7.4-4.1-11.1-5.8-6-2.7-12.4-5-18.9-5.5s-1.5-.6-2-.6c-3.9-.6-8.2-.8-12.1-1.2-7.5-.8-14.9-.6-22.4-.2-8.4.5-16,2.1-24.1,4.3s-5.6,1.6-8.3,2.5-2.9,1-1.5-.2c-.8,0-1.5.5-2.2.8s-1.2.2-1.5.5-.3.6-1.1,1-.7.2-1.4.2-5.6,2.6-6.7,3.1-.7,0-1,.4,0,.1,0,.4c-2,1-4,1.9-6,3s-5.1,3.1-7.5,4.9-4.7,3.7-7,5.6c-5.7,4.7-11.2,9.5-15.8,15.5-1.3,1.7-4.2,5.8-4.7,7.7s.1.5,0,.7-.7.6-.8,1c-1.7,4.7-3.6,11.2-4.5,16.1,0,.3-.2,2.2-.3,2.3s-.2-.2-.3-.1c0,.4.3.4.3.9s-.3.9-.4,1.3c-.4,3.1-.7,6.7-.8,9.8,0,.4.2,2,0,2.2s-.4,0-.4.2c.9.4.1,1.7.2,2.4s.5,2,.5,2.5-.2.3-.2.6c0,.4,1.2,1.9.2,1.9s.3.4.3.5c.2.9.1,2.2.3,3s1,2.1,1.2,2.7,0,.7,0,1,.5.4,0,.9c.2,0,.8.3.8.5s-.2.3-.2.4.4.4.5.6c.2.5.2,1.5.4,2s.7,1.3.9,1.8.4.9.4,1-.4,0-.2.5,1,.9,1.3,1.7,0,.8,0,1,.7.4.9.7c1.5,2,2.6,3.8,4.4,5.5s2.1,2.2,3,3.1.8.2,1.1.4c.5.3,1.2,1,1.6,1.3,1.2.8,2.6,1.2,3.8,1.8,8.6,4.4,15.6,7.3,25.4,8.4s1.3-.1,1.7,0,.4.3.7.4c4,.7,10.2.2,14.5.2s1.7-.2,2.3-.1,1.2.6,1.8.8c.5.5,0,1.6-.1,2.2-.8,3.1-1.6,6.2-2.3,9.2-1,4.3-1.6,8.9-2.1,13.2s-.9,13,1.3,17.9.9,1.5,1,1.5c.3.1,1.7-.8,2-1.1,1.2-.8,3.2-2.6,4-3.8s.5-1.6.8-2.2,1.3-1.8,1.4-1.9c.3-1,.6-2.6,1-3.7s1-1.5,1-1.8-.1-.5,0-.8.4-.6.4-1-.3-.8,0-1.4.4-.7.4-.8c.4-.5.9-.2,1.3-.2s.6-.2,1-.1,2,1.3,2.3,1.5.2.3.4.4c.5.3.9.1,1.1,1s-.2.8-.4,1.3,0,1.1,0,1.5-.4,1-.4,1.4.2,0,.3.2c.5.9,0,2.7,0,3.7,0,1.4.6,3.4.8,4.9s0,1.5.1,2.2.4,0,.4,0,0,.5,0,.7c.5,2,1.2,4.1,2.3,5.8s.4.8.4.8c.6.4,2.2-1.1,2.8-1.3s1-.1,1.6-.6c1-.8,1.8-2.3,2.5-3.2s.4-.2.5-.4c.2-.3,0-.6,0-.9s.3-.5.4-.8c1-2.4,1.8-5.3,2-7.8s.7-1.8.8-2.7,0-2.7.2-3.7.6-1.1.7-1.6c.2-.7-.3-1.9-.1-2.6s.2-.5.3-.7c.1-.5.3-2.3.7-2.6s1.2-.1,1.6,0c.9.2,1.5,1,2.2,1.3s1.2.1,1.5.4,0,.4.2.5.5,0,.5.1c0,0-.1.4-.1.5,0,3.8-.8,7.8-.2,11.5s1,3.6,1.9,4.7.8.8.9.8c.5.2,1.9.2,2.5.2s2.2-.2,2.8-.3c1.5-.3,2.7-1,3.4-2.4,2.4-4.8,3.2-11.3,2.3-16.5-.7-3.7-1.6-7.6-2.7-11.3s-1.8-6.2-2.2-9,0-1.3-.1-1.9l.4.3c0-1.7.3-3,1-4.5s1.5-2.1,2.4-1.5.3.2.9.4c3.4,1.4,7.7,1.2,11.4,1.2,5.3-.1,10.4-1.7,15.4-2.9s12-3.4,18-5.7c8.7-3.3,14.8-6.5,21.6-12.9,4.4-4.2,5.7-7,7.6-12.7s.4-1.9.5-2c.7-1.3,1-5.3,1.3-6.9s.2-4.6.3-6.8c0-6.9-1-14.1-2.6-20.7-.5-2.1-.9-4.5-1.7-6.4s-.4-.4-.4-.4c0-.7.1-.4-.2-1.2-1.6-4.5-3-8.4-5.6-12.6-1.9-3.1-3.7-6.6-6-9.5-.7-.9-1.2-1.8-2-2.6-3-3.6-8.9-8.8-12.8-11.3ZM85.7,42.7c-.3,0-.5,0-.6.3.2,0,.7-.2.6-.3ZM28.1,155.1c-.7-.6-.6.3,0,.5s.2-.4,0-.5ZM29.9,157.4c-.1-.1,0-.9-.6-.8-.2.2.7,1.1.9,1.3.3-.6-.2-.3-.3-.4ZM31.8,158.9c-.1,0-.4-.3-.5-.1l1,.8c.1-.1-.4-.6-.5-.6ZM33.1,160.2l-.4-.4c0,.3.2.5.4.4ZM43.9,165.9h-.6c-.2.7.7,0,.6,0Z"/>
  <path class="st0" d="M118.1,158.1c0,0,1,.4,1.4.7s.3.5.5.6c.6.6,1,.4,1.2,1.6s.6,3.7.3,4.5-.4.7-.4,1,.6.4.4,1.2-1.2,1.2-1.7,1.3-1.1,0-1.7.4-.5.6-.5.6c-.2,0-.5,0-1,.3s-.9.9-1,.9c-.7.2-.8-.3-1.2-.4-.7-.3-1.9,0-2.3-.3s-.1-.3-.3-.4-.3,0-.4-.2c-.2-.2-.6-1.7-.6-2s.2-.6.3-.9-.3-.6.2-.6c.1-.3-.3-.3-.4-.5s0-2,0-2.4-.4-.7-.1-1.2v.3c.6.4.5-2.4.5-2.5s.7-1.4.8-1.6.5-.9.6-.9c.8-.4,1.2.2,1.5.1s1.3-.8,1.8-.9,1.7.3,1.8.4c.4.2.4.7.5.7Z"/>
  <path class="st0" d="M22.2,147l-.7-1.4c.4.2.6.9.7,1.4Z"/>
  <g>
    <path class="st0" d="M165,112.3c2,.9,5,3.6,6,5.7s2,9.1,1.4,12.1-1.5,4-2.3,5.5c-2.5,4.4-5.7,7.1-10.3,9.5-5.7,2.9-11.2,4.1-17.5,4.7s-5.1-1.2-5.3-2.9.2-.7,0-1-1.2-.5-1.5-.7c-1.3-.9-1.9-1.9-2.6-3.2-2.5-4.6-4.5-13.8-2.3-19,.4-.9,2-4.4,2.5-5.1s1.5-1.4,2.1-2c2.4-2.4,4.2-3.6,7.4-5s.4-.1,1.1-.2,2.5-.9,3.6-1.1,1.2,0,1.8,0,1.8-.8,2.6-.7c2.1.3,4.3.4,6.4,1s1.4.7,1.9.9c1.6.5,3.4.8,5,1.5Z"/>
    <path class="st0" d="M95.5,115.4c.1,0,1.1.6,1.1.7.2.2.2.6.4.7s.9.2,1.1.5,0,.3.2.5c2.9,2.9,5.6,6.2,7.1,10.1s1.6,5.5,1.6,7.5-.3,1.7-.4,2.4.4,1.2-.3,1.7c.2.6.2-.1.5,0s-.4.9-.5,1.1-.5,2.4-.5,2.5-.3,0-.4,0,.3.5-.3,1c-1.7,1.6-3,3.7-4.9,5.3s-5.6,3.4-8.4,4.9,0,.4-.3.5c-1.8,1.1-6.1,1.1-8.1.9-3.1-.4-8.7-3.7-11.2-5.7s-1.6-1.6-2.5-2.2-.5-.1-.7-.3c-1.3-1.1-1.9-5.1-2-6.7-.8-10.2,2.6-17.7,11-23.2,1.2-.8,3.2-2.1,4.6-2.5,4.6-1.2,8.5-2,12.9.4Z"/>
  </g>
</svg>