<?xml version="1.0" encoding="UTF-8"?>
<svg id="Capa_1" xmlns="http://www.w3.org/2000/svg" version="1.1" viewBox="0 0 245.7 242.3">
  <!-- Generator: Adobe Illustrator 29.4.0, SVG Export Plug-In . SVG Version: 2.1.0 Build 152)  -->
  <defs>
    <style>
      .st0 {
        fill: #d00000;
      }
    </style>
  </defs>
  <g>
    <rect class="st0" x="122.6" y="138" width=".1" height=".4" transform="translate(-53 195.8) rotate(-66.6)"/>
    <g>
      <path class="st0" d="M100.6,148.9s0,.2,0,.2h-.3c0-.1.3-.3.4-.2Z"/>
      <path class="st0" d="M103.9,145.5c.1.2-.3.3-.4.2-.1-.2.3-.3.4-.2Z"/>
      <g>
        <g>
          <path class="st0" d="M133.2,142h-.3c.1-.2.3-.2.3,0Z"/>
          <path class="st0" d="M103.7,87.6v.2s-.3,0-.3,0c0-.1.2-.2.3-.1Z"/>
          <path class="st0" d="M103.1,91.6s-.2.3-.3.2.2-.3.3-.2Z"/>
          <path class="st0" d="M102.2,94.2s0,0,0,0c0-.1,0-.3.2-.3,0,0-.1.3-.1.3Z"/>
        </g>
        <path class="st0" d="M102.5,146.7l-.2.3-.5.4c0-.4.3-.8.7-.7Z"/>
        <path class="st0" d="M95.3,160c-.4.3,0,.7-.6.6.2-.3.1-.8.6-.6Z"/>
        <polygon class="st0" points="95.5 159.6 95.5 160 95.1 159.9 95.3 159.8 95.3 159.5 95.5 159.6"/>
        <path class="st0" d="M96.5,158.9h-.3c-.1-.3.6-.7.3,0Z"/>
        <path class="st0" d="M100.2,149.5l-.4.4c0-.2,0-.6.4-.4Z"/>
        <path class="st0" d="M96,158c-.1-.1.4-.3.4-.3,0,.2-.3.4-.4.3Z"/>
        <path class="st0" d="M94.5,161.1c0,0,.2,0,.2,0-.2.2-.4,0-.3-.2h0c0,0,0,.1,0,.2Z"/>
        <path class="st0" d="M94,161.8c0-.2.1-.3.3-.3,0,.2-.1.3-.3.3Z"/>
      </g>
      <path class="st0" d="M102.8,146.3c0,.1,0,.2-.2.2v-.2s.2,0,.2,0Z"/>
      <g>
        <path class="st0" d="M78.7,127.3c.1,0,.7-.1.7-.2.2-.1,0-.4.2-.5s1.1-.4,1.3-.5c.4-.2.7-.3,1.2-.4s.5-.4.8-.6.4,0,.6-.2c.2,0,1.5-.7,1.6-.8.3-.2,0-.1.5-.3,1.4-.7,2.9-1.9,4.2-2.9s.3-.1.4-.2,0-.2,0-.3c0,0,.3,0,.4-.1.4-.3,1.1-1,1.4-1.3.6-.6,1-1.5,1.6-2.1s.6-.4.8-.8.1-.6.1-.6c0-.1-.3-.3-.1-.6s.2-.3.2-.3-.2,0-.2-.2,0-.2,0-.4c0-.2-.3-.4,0-.5-.3-.3-.2-.6,0-1h.3c-.5,0-.3-.2-.3-.5s-.1-.2,0-.3c0,0,.2-.1.2-.2,0-.1-.5-.5-.1-.8s.4,0,.4-.1c-.3,0-.5.1-.6-.2h.3c-.3-.2-.3-.8-.3-1.1,0-.9,0-1.9,0-2.8s0-1.4.1-2.1,0-1.6.2-2.4.1-.1.1-.2-.1,0-.1,0c0-.1.4-2.3.4-2.6.3-1.9.6-3.8,1.1-5.7s.2-.3,0-.7h.2c0-.1,0-.3.1-.5s.3-.3.1-.4,0,.2-.1.2c-.2,0,0-.3,0-.4.1,0,0,.3.2.2s.3-.6.3-.7c.2-.5.2-1.2.8-1.6,0,.4.4,0,.5-.2,0-.1-.3-.1-.4,0,0,0,.1-.6.2-.6.2-.1.1.3.3.2,0-.2.3-.3.3-.5.3-.5.5-1.1.7-1.5s.5-.4.6,0l.7-.7c0,.2,0,.4,0,.6s-.4.3,0,.4v-.2c0,.1.2.3.2.2s.2-.7.3-.9.3.2.2-.2c.4,0,.7-.2.4.4h.2s0-.2,0-.2c.3,0,.2.4.6.2,0,.2-.3.1-.4.2-.3.2-.1.3-.1.4s-.3.1,0,.3c.1-.1.3-.3.5-.2,0,0-.8,1.2-.6,1.5l1.4-2.4v.4c.3,0,.4-.1.5-.3.2.3,0,.2,0,.3s0,.2,0,.3c-.1.2-.7,1.3-.7,1.4,0,.4.8-.4.7,0s-.2.6-.4.9,0,.4-.2.1.4-.7.3-.9c-.1,0-.3,0-.4.1s-.5,1.2-.6,1.4c-.2.6-.3,1.3-.5,1.9s-.2.2-.2.4c0,0,.3-.3.3-.4.2-.5.5-1.4.7-1.9s.1-.4.2-.5c.1.3,0,.9,0,1.1s-.2,0-.2.2.1,0,.1.1.2.5,0,.6-.3-.2-.3,0,.7.7.4,1.1c-.2,0-.1-.5-.3-.6s0,.3-.3,0c0,.3,0,.5-.3.4,0,.2.1.7,0,.9s-.3,0-.3.3c0,.6,0,.3-.2.7s-.5,1.4-.5,1.4.2,0,.1.2-.5,1-.4,1.1c.6,0,.2-.4.2-.6s.2-.2.2-.3c.2-.5.3-1.1.7-1.4.1.2-.2.3-.2.4s.1.2.1.3c0,.2-.2.3,0,.6.1.4.3-.3.4-.5l.3.3c0-.2,0-.4.2-.4v.2c.5-.1,0-1,.3-1.1.3,0,.9,0,1.1.3s0,.8.2.8c.3,0,0-.7,0-.8,0-.6.6-.2.8,0,0,0,0-.2.1-.2.2,0,0,.9.4,1.1l.2-.6c0,.2.5.3.6.3.1.2-.3,1,.4,1-.2.4,0,.3,0,.5.6,1.5.3,4.6.1,6.2s-.2.8-.2,1,0,0,0,.5c-.5,1.6-.7,3.4-1.3,5s-.4.7-.5,1,0,.3,0,.4-.2,0-.3.1,0,.3,0,.5c-.1.5-.5,1.1-.6,1.6h-.2c0-.1,0,.2,0,.2h.2c0-.1-.4.7-.4.7,0-.2-.4.2-.4.2,0,.2.4.2,0,.5s-.2-.1-.3,0,0,.5-.1.7-.2,0-.3.2c-.3.3,0,.4,0,.4,0,.2-1.5,2.4-1.7,2.8.3.2,0,.6.2.9s.2.1.3.3c0,.2,0,1.3,0,1.3s.1,0,.2,0c.2.2.5,1.6.6,1.9.3.9,1,2.1,1.5,3s.7,1.3,1.3,1.9.5.3.5.4,0,.2,0,.3c0,.4,1,.8,1,1.1s0,.2,0,.2.4.1.6.3c.6.5,1.5,1.6,2.1,1.9s.7.5,1.3.9,1.3.7,1.7,1,0,.2.1.2.3,0,.5,0c.4.1.8.6,1.2.8s.7.3,1,.4c1.3.6,3.2,1.7,4.5,2s.3,0,.5,0,0,.2,0,.2c0,0,.1-.1.3,0s.1.2.2.2c.3.1.7.4.9.5.4.2,1.4.2,1.7.4s0,.2.2.3c.2.1.9.2,1.2.3s.6.3,1,.3v.2c.5-.1.9.2,1.4.5s0,.2,0,.2c.1,0,.4-.2.5-.2.2,0,.4.2.6.2s.8,0,1,.2,0,.2.1.2c.1.1.7.2.9.2s.4-.2.5,0-.1.3.3.3.1-.3.3-.1-.3.2.3.3.2-.2.6-.1.2,0,0,.1h-.3c0,0,.9.4.6.2s-.2,0-.1-.2c.3,0,.2.3.6.4s.3-.2.5-.2,1.1.3,1.4.3.3.1.3.1c.1,0,.5-.1.7,0,0,.2-.6,0-.4.2s1.2.3,1.5.3v-.3c.3-.1.3.1.3.1,0,0,.2,0,.3,0s.4.4.5,0-.3-.3-.4-.6c.1,0,.5.2.5.2.1,0,.6-.2.9-.2s.4.3.7.4.3,0,.5,0,.3.5.3.6-.1.4.3.4.2-.4.2-.4-.1,0-.1,0c-.2-.5.6,0,.7,0,.2,0,.3-.2.6,0s.1.1.2.2.2,0,.2,0c0,0,0,.5,0,.6s1,0,1.1,0,.2.5.3.6c0,.4,0,1,0,1.4s-.4.4-.3.8.2.2.2.3c0,.8-.3,1-.7,1.6s-.4.8-.8,1.1-.5,0-.4.6c-.2,0-.3-.2-.4-.2s-.9.4-1,.5-.3.6-.4.6-.1-.2-.2-.3-.3,0-.5,0c-.5-.1-1.2-.5-1.7-.6s-.3,0-.3,0-.1-.2-.3-.3c-.7-.2-1.3-.2-1.9-.3s0-.2,0-.2c-1.6-.6-4.5-.4-6.3-.8s-.3-.2-.5-.2,0,.2-.5,0-1.2-.1-1.6-.3-.2-.2-.3-.2c-.2,0-.4.2-.5.1s-.3-.2-.5-.2c-.6,0-1.3,0-1.8,0s-.7,0-.7,0c0,0,0-.1,0-.2h0c0,.2-.7.2-.6,0h0c0,.3-.6,0-.9,0-.4,0-1,.2-1.3.2s-.3-.2-.6-.2-.6.2-.9.2-.4-.2-.6-.2,0,.1-.2.2-.7.1-.8.1c-.3,0-.4-.3-.5-.2s0,.1,0,.2c0,.1-.4,0-.6,0-2.6.3-6,1.1-8.1,2.8s-1.3,1.4-2.1,2.5-.3.2-.4.2c-.2.2-.4.9-.6,1.1s-.6.5-.6.6-.1.6-.1.7c-.4-.1-.2.2-.3.4s-.2-.1-.3,0-.1.4-.3.5h.3c0,.3-.2.2-.2.3-.1.3,0,.6-.5.5,0,.1.1,0,.1.1,0,0-.2.3-.4.2,0,0,.1.2.1.2s-.6,1.3-.7,1.4-.3,0-.3.1c0,.2-.1.8-.3,1.1-.4.9-1,1.9-1.3,2.7s-.1.4-.1.5h-.2c0,0,0,.3,0,.5-.4,1.3-1.3,2.8-1.8,4-1.1,2.6-2,5.1-2.8,7.8s-.4,1.8-.6,2.6-.3.3-.3.5c-.3,1.1-.3,2.4-.6,3.5s-.1.1-.2.2.2,0,.2.1-.3.9-.3,1c-.5,1.6-.8,3.2-1.3,4.8s-.7,1.8-.9,2.7-.5.6-.2.6c0,0-.2.2-.3.3-.3.6-.3,1.6-.4,2.3-.3,1.4-1,2.7-1.2,4.2s-.2,4-.6,5.9c-.2.3-.7,2.1-.8,2.2s-.2-.1-.2-.1c0,.1-.1.6-.2.7s-.2,0-.3,0,0,.2-.2.3-.2,0-.3,0,0,.3-.1.4-.4,0-.5,0c-.2,0,0-.3-.5,0s-.4.9-.8,1,0-.2-.2-.3c-.3-.1-.8.2-1.3,0s-.2-.2-.3-.3c-.6-.3-.9-.5-1.4-.7s-.3-.3-.4-.5c-.2-.4-.8-1.1-.9-1.5s.1-.5,0-.7-.3-.4-.3-.4c0-.1.2-.2.2-.4,0-.3-.1-1-.1-1.3.1-1.4.4-2.9.6-4.3.8-6.1,1.6-12,1.3-18.2s0-1.1,0-1.6-.2-1.7-.3-2.7c-.2-1.8-.4-3.5-.7-5.2-.6-3.5-1.5-7.1-2.5-10.6s-.5-2.4-1.1-3.4,0-.2,0-.4c0-.5-.4-1.2-.6-1.7-1.2-3.9-2.6-8.4-5.4-11.5s-4.9-3.6-7.8-4.7c-.3,0-.6,0-.8,0s-.3.4-.3,0-.2-.1-.2,0,.2.3-.2.3-.1-.4-.5-.3-.1.2-.2.2-.2-.1-.4,0-.4.2-.4.3c0,0,0,.2,0,.2-.2,0-.6,0-.9,0-1.1,0-2.7.6-3.7.4s-.4-.3-.6-.3-.5.1-.6.2h.8c.2.2-1,.1-1.1.1s-.2.1-.3.1c-.2,0,0-.4-.3-.4,0,0,0,.3,0,.3s-.8.1-.9.1c-.4,0-1,0-1.5,0s-.1.1-.2.1c-.6-.1-1.7-.1-2.4-.1s-.8.2-.9.2c-.2,0-.6-.1-.9,0v-.2c-.2.3-.7,0-.9,0s-.8.2-1.2.1-.2-.2-.3-.2,0,.1,0,.2c0,0-.1-.1-.2-.2s-.8,0-.9,0c-.2,0-.3.2-.4.2s-1.1,0-1.1-.4h0s0,.1,0,.1c0,0-.1,0-.1,0,0,0,0,.3-.3.1,0-.1.2-.1.3-.1,0-.2-.2,0-.2,0-.2,0-.5.2-.6.2s-.2-.2-.3-.3-.3,0-.4.1c-.3,0-1.2,0-1.5,0s0-.2-.1-.2c-.1,0-.3,0-.5,0-1.3-.1-2-.3-3.4-.3s-.9-.2-1.3-.3-.6.3-1.4,0-1.3-.9-1.4-1.2,0-.2,0-.3-.3-.1-.3-.2c0-.2.2-.3.1-.4,0-.2-.4-.3-.5-.4s-.1-.7-.1-.7c0-.3.1-.9,0-1.1s-.1,0-.1-.2,0-.7.1-.8.3-.2.3-.3-.1,0-.2-.1c-.4-.5,0-.3.2-.4s0-.5.4-.7.2,0,.4-.1c.3-.2.5-.7,1-.9s.7,0,1-.2.2-.2.4-.3.4.1.5,0c.2,0,.1-.2.1-.3,0,0,.5,0,.5,0,.3,0,.3.2.9,0,1.1-.2,2.4-.7,3.5-.9,3.1-.5,6.8-.6,9.9-.4s7.7.6,11.4,1.4,3.3,1.3,5.8.7,4.7-1.1,6.8-1.8.9-.5,1.4-.6c1.7-.6,3.2-.9,5-1.6s.5,0,.7-.2,0-.1,0-.2c-.1,0-.3,0-.4,0h0c0-.1,1.1-.5,1.1-.5.1.1-.7.4-.8.4s0,.1,0,.1ZM103.2,87.1h-.2s0,.2,0,.2c.1,0,.2-.1.2-.2ZM100.6,87.7c0,0,.3-.7,0-.6s-.2.2-.2.4c0,.3-.4.5-.3.9.1,0,0-.1.2-.2s.2,0,.2,0c.2-.2,0-.5.5-.3h-.2ZM99.8,87c-.3,0-.3,0-.3.2l.3-.2ZM101.6,89.2h-.2s0,.2,0,.2c.2,0,.3,0,.3-.2ZM99.6,89.4l-.5.4c.3,0,.5,0,.5-.4ZM101.3,92.5l-.2.5h.2c0,0,.2-.4.2-.4h-.2ZM98.3,92.4c-.6,0,0,.2-.2.5.4,0,.2-.2.2-.5ZM101.1,93.8v-.4c0-.1-.4.7-.4.8l.4-.4ZM100.5,94.9c.1-.1.3-.2,0-.4,0,.1-.1.2-.2.3-.2.2-.5,0-.5.4l.6-.3ZM100.4,95.8s-.3-.1-.3-.1l.2.4c.1,0,.1-.2.1-.2ZM100.5,96.3v-.3c0,0-.2.2,0,.3ZM99.3,97.3c-.3,0,0,.5.2.5.3,0,0-.5-.2-.5ZM100.6,98c0-.1,0-.2-.1-.3v.2s.1,0,.1,0ZM100.9,97.9c-.3,0-.3,0-.3.2l.3-.2ZM100.6,98.5c0-.2,0-.3-.3-.4,0,0,.2.4.3.4ZM99.3,98.5c-.2-.2-.5.4,0,.3s.1-.3,0-.3ZM100.4,100c0,0-.3,0-.3,0s-.2,1.1-.3,1.3c.5.1.2-.3.2-.5s.2-.6.3-.8ZM100,102.5l-.2-.6c.1.2-.1.6.2.6ZM99.7,103.2c.2,0,.2-.2,0-.3v.3ZM99.8,103.6c0-.1,0-.3-.1-.3v.3c-.1,0,.1,0,.1,0ZM104.3,112.3l.3-.7c-.2,0-.4.6-.3.7ZM96.5,124.8c-.1,0-.1,0-.2,0-.4.3-.9.9-1.4,1.3s-.4.4-.7.7c-.7.5-1.5,1.2-2.2,1.7s-1.2,1.1-1.9,1.6-.5.2-.7.5v-.3c-.5,0-.5.5-.7.7s-1.4.9-1.6,1-.3,0-.4,0-.4.3-.4.3c0,0-.2-.1-.2,0s0,.2,0,.2c-.2.2-.6.2-.9.4s-.2,0-.2,0c0,0,0,.4-.4.4s0-.2,0-.2c-.1,0-.3.3-.4.2s.2-.2,0-.3c-.5,0-.2.4-.3.5s-.4.2-.5.2c-.1,0-.3-.2-.5.1h.2c-.2.1-.2.3-.4.2v-.2c-.3.2-1,.3-1.2.4s0,.2-.1.2-.2,0-.2,0c0,.1,0,.4,0,.4,0,0-.4-.2-.6,0h.1c-.2.5-.2.2-.5.1,0,0,.1.2,0,.3s0-.3-.1-.2,0,.2,0,.2c0,0-.1,0-.2,0-.2,0-.3.3-.5.3,0-.6.3,0,.3-.4-.3,0-.9,0-.6.5-.3-.2-.2,0-.4.1s-.3,0-.4,0h.5c0-.6-.7,0-.8,0s-.2,0-.3,0c-.2,0-.3.3-.4.4s-.3.2-.4.2c-.5.2-1.2.3-1.7.4s-.2.2-.4.1c.1.4.5.5.7.7s.2.3.3.4c.4.3.8.6,1.1,1s0,.5.4.4c-.1.5,0,.3.3.4s.1.2.2.3c1,.8,1.3,1.6,2,2.7,1.5,2.4,2.2,5,3,7.7s1.3,3.6,1.7,5.6.1.2.1.3c0,.2-.1.3-.1.4s.2.1.3.3c.1.3.2,1,.3,1.4,1.1,3.8,2.1,7.7,2.9,11.5s.4,2,.5,3c.3.3.3.2.4-.1s.1-.6.2-.9.8-1.2.8-1.3-.1-.1,0-.3.3-.1.3-.4h-.2c0,0,.2-.5.2-.5h-.2c.4,0,.5-.7.6-.8s.2,0,.2,0,0-.3,0-.4.4-.3.5-.4c.5-.8.4-1.1,1.2-1.7s.3-.7.5-1,.6,0,.6-.3-.4-.3-.2-.4.1,0,.2,0c.3-.2.2-.3.3-.5s.4-.6.4-.9c0,0-.1,0-.2,0s0-.3-.2-.2.1.3.1.4,0,.4-.2.3c-.4-.1-.1-.2,0-.5s0-.3,0-.4.3-.2.3-.3v.2c.1,0,.2-.2.2-.2.1,0,0,.3.3.3,0-.6.4-.3.4-.4.1-.2-.1-.2-.1-.2,0-.2.1-.1.2-.2.2-.3.2-.1.3-.2s.2-.4.3-.5.3,0,.3-.1c-.2,0-.1-.2-.1-.3,0-.1-.4.1,0-.4l.3.2v-.3c.1,0-.2,0-.2,0,.2,0,.2-.5.4-.3v.2c0-.5,0-.2.3-.3s0-.2.1-.3c-.4.2-.4-.2,0-.2,0-.1-.1,0-.1-.1s.1-.3.1-.3c0,0,.3,0,.4,0s.2-.5.7-.3c0-.2-.2,0-.2-.2,0-.2.3-.4.5-.3v-.3c-.3,0-.2.1-.3.2-.2,0-.3-.2-.4-.4.3,0,.5,0,.8-.2h-.3c-.1,0,0-.2,0-.2s-.2,0-.1-.1c0,0,.3,0,.3,0,.1,0,.3-1.2.5-.6,0-.1.5-.6.5-.6,0,0-.8-.6-.8-.8.2,0,.3.1.5.1.3,0,.2-.3.2-.3,0,0,.5.2.5.2,0-.4.3-.2.5-.5,0-.2-.4.1-.4,0s0-.2,0-.2c-.1,0-.3,0-.3,0s.2-.3,0-.3,0,.3-.2.4c-.1-.2-.3-.6-.2-.8s.2-.2.3-.3,0-.2,0-.2c.8-1.5,1.9-3,2.8-4.2s0-.3.1-.3.3.1.4,0c.1-.1-.3-.3-.1-.4s.2.1.2.1c0-.2.2-.5.3-.7s.7-.6.9-.6v-.3c.1.3.3-.4.3-.4,0,0,.3.2.3.1,0,0,0-.6.6-.4l-.2-.2c.6.2.7-.3,1.1-.5,0-.3-.3,0-.1-.3s.5-.2.5-.2c.4-.3.7-.8,1.2-.3,0-.2.1-.4-.1-.3h0c.3,0,.6-.3.9-.1s0,.3.2.2.2-.4.4-.4,0,.3.5,0v-.3c.1,0,.5-.2.6-.2s0,.2,0,.2c.2,0,0-.2,0-.2.1,0,1,0,1.2,0,.5-.1,1-.4,1.4-.5s.9-.3,1.1-.2.6.3.8,0,0-.1,0-.2c-.2-.1-.8-.5-.9-.6-.2,0-.3,0-.4,0s-1-.7-1.2-.8c-.5-.3-1.1-.5-1.5-.7s-.3-.3-.3-.3c-1.6-1-3.2-1.7-4.7-3s-.2-.3-.2-.3c-.2-.2-.2,0-.5-.4s-.5-.2-.7-.4,0-.3,0-.5-.3,0-.1-.2.2.1.3,0c-.6-.2-.3.2-.6.4-.3-.5-.9-.8-1.2-1.2s-.7-.8-1.1-1.3-.2-.6-.3-.7-.2,0-.3-.1,0-.3,0-.3-.4,0-.2-.3c-.8,0-.4-.7-.4-.7-.1-.2-.2.2-.3.1,0-.3-.2-.4-.3-.6s-.3-.5-.3-.5c0,0,0-.3,0-.3s-.6,0-.4-.6h.2c0-.5-.3,0-.3-.1s-.2-.5-.2-.5c0-.2.2-.3.2-.4,0-.1-.2,0-.3-.2-.2-.5-.4-1-.7-1.5s-.7-.4-.2-.9c-.3.2-.6-.4-.5-.4.2-.1.3.5.5,0-.3,0-.3,0-.3-.3ZM139.7,143s-.6,0-.7,0c.2.4.6.1,1,.2,0-.1-.1,0-.2-.1s0-.1,0-.1ZM140.3,143.3c0-.4-.4-.3-.3,0h.3ZM106.6,144.4c-.2-.1-.4.2-.4.2-.2,0-.1-.2-.3.1.1.1.6-.2.7-.3ZM127.2,147.8c-.1,0-.2,0-.3.1h.2s0-.1,0-.1ZM59.2,139.7c0-.4-.3-.3-.3,0h.3ZM126.7,148c0,0-.5-.1-.5,0s.5.2.5,0ZM127.6,148.1c-.1.1.2.4.2.2s-.2-.2-.2-.2ZM58.6,139.6c-.1,0-.2,0-.3.1h.2s0-.1,0-.1ZM121,147.7l-.2-.3v.2c-.1,0,.2,0,.2,0ZM121.4,147.6h-.2c0,.1.1.2.2.2v-.2ZM55.1,140.1c.2,0,.4-.2.2-.3s0,.2-.2.3ZM117.8,147.6h-.2c0,.4.1.4.2,0ZM52.2,140h-.3c.1.5.4.6.3,0ZM49.3,140c0,0-.3-.1-.4-.2l.3.5c.2.1,0-.3,0-.3ZM100.7,150.5h.5c0,0-.4-.2-.5,0ZM99.5,153.2c0-.2-.2-.4-.4-.3s0,.2,0,.3h.4ZM99.1,153.5c-.2,0-.4,0-.2.2l.2-.2ZM98.1,156.5h-.3s0,.1,0,.1c.1,0,.3,0,.3-.1ZM102.2,157.5c.2,0,.4-.3.2-.4l-.2.4ZM98.3,156.8h-.2s0,.2,0,.2c.1,0,.2-.1.2-.2ZM95.7,161.4l-.4.2h0c0,.1.4,0,.4,0h0Z"/>
        <path class="st0" d="M75,128.4c-.2.2-.6.3-.9.3.2-.3.6-.3.9-.3Z"/>
        <rect class="st0" x="73.2" y="128.9" width=".4" height=".1" transform="translate(-19.5 13.3) rotate(-9.1)"/>
        <path class="st0" d="M77.6,127.6c0,.2-.2.2-.3.1,0,0,.2-.2.3-.1Z"/>
      </g>
    </g>
    <path class="st0" d="M98.5,152.2l-.5.5c.1-.2.2-.7.5-.5Z"/>
    <path class="st0" d="M98.9,151.4c0,.2,0,.3-.2.3v-.3s.2,0,.2,0Z"/>
    <path class="st0" d="M98.1,152.8c.1.3-.4.2-.2,0h.2Z"/>
  </g>
  <g>
    <rect class="st0" x="195.7" y="88.2" width=".1" height=".3" transform="translate(67.2 260.3) rotate(-77.5)"/>
    <g>
      <path class="st0" d="M181.5,99s0,.1,0,.2h-.2c0,0,.2-.2.2-.2Z"/>
      <path class="st0" d="M183.4,96.1c.1,0-.2.2-.2.2-.1,0,.2-.2.2-.2Z"/>
      <g>
        <g>
          <path class="st0" d="M203.8,89.5h-.2c0-.2.2-.1.2,0Z"/>
          <path class="st0" d="M175.2,54.6h0c0,.1-.2.1-.2.1,0,0,0-.1.2-.1Z"/>
          <path class="st0" d="M175.3,57.6s0,.3-.2.2,0-.3.2-.2Z"/>
          <path class="st0" d="M175,59.6s0,0,0,0c0-.1,0-.2.1-.2,0,0,0,.2,0,.2Z"/>
        </g>
        <path class="st0" d="M182.5,97.2v.3c-.1,0-.4.4-.4.4,0-.3,0-.6.4-.6Z"/>
        <path class="st0" d="M179.2,107.7c-.2.3.2.5-.3.5.1-.3,0-.6.3-.5Z"/>
        <polygon class="st0" points="179.3 107.4 179.3 107.7 179 107.7 179.2 107.5 179.1 107.4 179.3 107.4"/>
        <path class="st0" d="M179.9,106.7h-.2c-.1-.1.4-.6.2,0Z"/>
        <path class="st0" d="M181.3,99.5l-.2.4c0-.2,0-.4.2-.4Z"/>
        <path class="st0" d="M179.4,106.1c0,0,.2-.3.2-.3,0,.1-.2.3-.2.3Z"/>
        <path class="st0" d="M178.8,108.6c0,0,.2,0,.2,0-.1.2-.3,0-.2-.1h0s0,0,0,0Z"/>
        <path class="st0" d="M178.5,109.2c0-.1,0-.2.2-.3,0,.1,0,.2-.2.3Z"/>
      </g>
      <path class="st0" d="M182.7,96.8c0,0,0,.2-.1.2v-.2s.1,0,.1,0Z"/>
      <g>
        <path class="st0" d="M162.8,86.6c0,0,.5-.2.5-.2,0-.1,0-.3,0-.4s.7-.5.8-.6c.3-.2.5-.3.8-.5s.3-.4.5-.5.3-.1.4-.2c.1-.1.9-.7,1-.8.2-.2,0,0,.3-.3.9-.7,1.8-1.8,2.6-2.7s.2-.1.2-.2,0-.2,0-.2c0,0,.2,0,.3-.2.2-.3.6-.8.8-1.1.3-.5.5-1.2.8-1.7s.4-.3.5-.7,0-.5,0-.5c0,0-.2-.2-.2-.4s.1-.2,0-.3-.1,0-.2,0,0-.2,0-.3c0-.1-.3-.2,0-.3-.2-.2-.2-.4-.2-.7h.2c-.3,0-.2-.1-.3-.4s-.1-.1-.1-.2c0,0,.1-.1.1-.2,0-.1-.4-.3-.2-.5s.3,0,.3-.2c-.2,0-.3.1-.5,0h.2c-.2-.1-.3-.6-.3-.8-.1-.6-.3-1.4-.3-2s-.2-1-.2-1.5-.2-1.1-.2-1.7,0-.1,0-.1,0,0-.1,0c0,0,0-1.7,0-1.9,0-1.4-.1-2.8,0-4.3s.1-.2,0-.5h.1c0-.1,0-.3,0-.4s.2-.3,0-.3,0,.1,0,.1c-.1,0,0-.2,0-.3,0,0,0,.2.2.1s.1-.5.1-.5c0-.4,0-.9.3-1.2.1.3.2,0,.3-.2,0,0-.2,0-.3,0,0,0,0-.4,0-.5.1-.1.1.2.2.1,0-.2.1-.3.2-.4.2-.4.2-.8.3-1.2s.3-.3.4,0l.4-.6c0,.1,0,.3,0,.4s-.2.3,0,.3h0s0,0,.1,0,0-.6.1-.7.2.1,0-.2c.3,0,.5-.2.4.2h.2s0-.2,0-.2c.2,0,.2.2.4,0,0,.1-.2.1-.3.2-.2.2,0,.3,0,.3s-.2.1,0,.2c0-.1.2-.2.3-.2,0,0-.4,1-.3,1.2l.7-1.9v.3c.3,0,.3-.1.4-.3.2.2,0,.2,0,.2s0,.1,0,.2c0,.2-.3,1-.3,1.1,0,.3.5-.4.5,0s0,.4-.2.7,0,.2-.1.1.2-.5,0-.7c0,0-.2,0-.3.1s-.2.9-.2,1.1c0,.5,0,.9,0,1.4s-.1.2,0,.3c0,0,.2-.3.2-.3.1-.4.2-1.1.3-1.5s0-.3,0-.4c.1.2.2.6,0,.8s-.1,0-.1.1,0,0,.1,0,.2.4.2.4-.3-.1-.2.1.6.4.5.7c-.2,0-.2-.4-.3-.4s0,.2-.2,0c0,.2,0,.3-.2.3,0,.2.2.5.2.6s-.2,0-.1.3c0,.4,0,.2,0,.5s-.2,1-.1,1.1.1,0,.1.1-.2.8-.1.8c.4-.1,0-.3,0-.5s0-.2.1-.3c0-.4,0-.8.3-1.1.1.1-.1.2-.1.3s0,0,.1.2c0,.1,0,.2,0,.4.1.3.2-.3.2-.4l.3.2c0-.1,0-.3,0-.3h0c.2,0-.2-.6,0-.7.2,0,.7-.1.8,0s.2.6.3.6c.2,0,0-.5-.1-.6,0-.4.4-.2.6,0,0,0,0-.1,0-.1.1,0,.2.7.4.8v-.5c.2.1.5.1.5.2.1.1,0,.8.4.6-.1.3,0,.2.1.3.6,1,.9,3.2.9,4.4s0,.6,0,.7,0,0,0,.4c-.1,1.2,0,2.5-.2,3.8s-.2.6-.2.8,0,.2,0,.3-.2,0-.2.1,0,.2,0,.3c0,.4-.2.8-.2,1.2h-.2s0,.2,0,.2h.1c0,0-.1.5-.1.5,0-.1-.3.2-.3.2,0,.1.3.1.1.4s-.1,0-.2,0,0,.4,0,.5-.2,0-.2.2c-.2.3,0,.3,0,.3,0,.1-.7,1.9-.8,2.2.3,0,.1.4.2.6s.2,0,.2.2c0,.1.2.9.2,1s0,0,.1,0c.2.1.6,1,.7,1.3.4.6,1,1.4,1.5,2s.7.9,1.2,1.2.4.1.4.2,0,.1,0,.2c0,.3.8.4.9.6s0,.2,0,.2.3,0,.4.1c.5.2,1.3.9,1.8,1s.6.2,1.1.5,1,.3,1.4.5,0,.1.1.2.2,0,.4,0c.3,0,.7.3,1,.4s.5.1.8.2c1,.2,2.5.8,3.5.8s.2,0,.3,0,0,.1,0,.1c0,0,0-.1.2-.1s.1,0,.2.1c.3,0,.5.2.7.2.3,0,1,0,1.3,0s0,.1.2.2c.2,0,.7,0,.9,0s.5.1.8,0h0c.4,0,.8.1,1.2.3s0,.1,0,.1c0,0,.2-.2.4-.2.2,0,.3,0,.5,0s.5-.1.7,0,0,.1.1.2c.1,0,.5,0,.7,0s.2-.2.4,0,0,.2.3.1,0-.2.2-.1-.2.2.2.2.1-.2.4-.2.2,0,0,0h-.2c0,.1.7.2.5,0s-.1,0-.1-.1c.2,0,.2.2.5.2s.2-.2.3-.2.8,0,1,0,.2,0,.2,0c0,0,.3-.1.5,0,0,.2-.4,0-.2.2s.9,0,1.1,0v-.2c.2-.1.2,0,.2,0,0,0,.1,0,.2,0s.4.3.4,0-.3-.2-.4-.4c0,0,.4,0,.4,0,0,0,.4-.2.6-.3s.4.2.5.2.2,0,.4,0,.3.3.3.4,0,.3.3.2,0-.3,0-.3,0,0-.1,0c-.2-.3.4-.1.5-.1.1,0,.2-.2.4,0s.1,0,.2.1.1,0,.2,0c0,0,0,.4.1.4s.7-.2.8-.2.3.4.3.4c0,.3.2.7.1,1s-.2.3-.1.6.1.1.2.2c.1.6,0,.8-.3,1.2s-.2.6-.4.9-.4,0-.2.5c-.1,0-.2,0-.3,0s-.6.4-.6.5-.1.5-.2.5-.1-.1-.2-.2-.2,0-.3,0c-.4,0-.9-.2-1.3-.2s-.2.1-.2.1-.1-.1-.3-.1c-.5,0-1,0-1.4,0s0-.1,0-.1c-1.2-.2-3.3.3-4.6.3s-.2,0-.4,0,0,.1-.3.1-.9,0-1.2,0-.2-.1-.3,0c-.1,0-.2.2-.3.2s-.2,0-.4,0c-.4,0-.9.2-1.3.3s-.5,0-.5,0c0,0,0,0,0-.1h0c0,.2-.5.3-.4,0h0c0,.3-.5.1-.6.1-.3,0-.7.3-.9.3s-.3,0-.4,0-.4.2-.6.3-.3,0-.5,0,0,.1-.1.1-.5.2-.6.2c-.2,0-.3-.1-.4,0s0,0,0,.1c0,0-.3,0-.4.1-1.8.6-4.2,1.6-5.4,3.1s-.8,1.2-1.2,2.1-.2.2-.2.2c0,.2-.2.7-.2.9s-.3.4-.4.5,0,.4,0,.5c-.3,0-.1.2-.2.3s-.2,0-.2,0,0,.3-.2.4h.2c0,.1,0,.1-.1.2,0,.2,0,.4-.3.5,0,.1,0,0,.1,0,0,0,0,.3-.2.2,0,0,.1,0,.1.2s-.2,1-.3,1.1-.2,0-.2.2c0,.2,0,.6,0,.8-.1.7-.4,1.5-.6,2.2s0,.3,0,.4h-.2c0,0,0,.3,0,.4-.1,1-.5,2.2-.7,3.1-.4,2-.7,3.9-.9,6s0,1.3,0,1.9-.1.3-.2.4c0,.8.1,1.8,0,2.6s0,.1,0,.2.1,0,.1,0,0,.7,0,.8c-.1,1.2-.1,2.4-.3,3.6s-.2,1.4-.3,2-.3.5,0,.5c0,0-.1.2-.1.3-.1.5,0,1.2,0,1.7,0,1.1-.3,2-.3,3.1s.4,2.9.4,4.3c-.1.2-.2,1.6-.3,1.7s-.2,0-.2,0c0,.1,0,.5,0,.5s-.2,0-.2,0,0,.2,0,.2-.1,0-.2,0,0,.2,0,.3-.3.1-.3.1c-.1,0,0-.2-.4,0s-.2.7-.4.8,0-.2-.2-.2c-.3,0-.5.3-1,.1s-.2-.1-.3-.1c-.5-.1-.7-.2-1.1-.3s-.3-.2-.4-.3c-.2-.2-.7-.7-.8-.9s0-.4,0-.5-.3-.2-.3-.2c0,0,0-.2,0-.3,0-.2-.3-.7-.3-.9-.1-1,0-2.1-.2-3.2-.3-4.5-.5-8.9-1.6-13.2,0-.4-.1-.8-.3-1.2s-.4-1.2-.6-1.9c-.4-1.2-.8-2.4-1.2-3.6-.9-2.4-2.1-4.9-3.2-7.2s-.7-1.6-1.2-2.3,0-.2,0-.3c-.1-.3-.5-.8-.7-1.1-1.4-2.6-3-5.7-5.5-7.5s-4-1.9-6.2-2.3c-.2,0-.4,0-.6.1s-.1.3-.2,0-.2,0-.2,0,.2.2,0,.2-.1-.2-.4-.1,0,.2-.1.2-.1,0-.3,0-.3.2-.3.3c0,0,0,.1,0,.2-.1,0-.4,0-.6.1-.7.2-1.8.8-2.6.8s-.3-.2-.5-.1-.4.2-.4.3l.6-.2c.2.2-.7.3-.7.3s-.2.1-.2.1c-.1,0-.1-.3-.3-.2,0,0,0,.2,0,.2s-.5.2-.6.2c-.3,0-.7,0-1.1.2s0,.1-.1.1c-.5,0-1.2.1-1.7.2s-.6.3-.6.3c-.2,0-.4,0-.6,0h0c0,.1-.5,0-.7,0s-.5.2-.8.3-.1,0-.2,0,0,.1,0,.1c0,0-.1,0-.2,0s-.6,0-.6,0c-.1,0-.2.2-.3.2s-.8.1-.8-.1h0s0,.1,0,.1c0,0-.1,0-.1,0,0,0,0,.2-.2.1,0,0,.1-.1.2-.1,0-.1-.1,0-.2,0-.1,0-.3.2-.4.2s-.2-.1-.3-.2-.2.1-.3.1c-.2,0-.9.1-1.1.1s0-.1-.1-.1c0,0-.2,0-.4.1-.9.1-1.5,0-2.5.2s-.7,0-1,0-.4.3-1,.2-1-.5-1.2-.7,0-.2,0-.2-.2,0-.3-.1c0-.1,0-.2,0-.3,0-.1-.3-.1-.4-.3s-.2-.5-.2-.5c0-.2,0-.6,0-.8s-.1,0-.1-.1,0-.5,0-.6.2-.2.2-.2-.1,0-.2,0c-.3-.3,0-.2,0-.3s0-.3.2-.6.2,0,.2-.1c.2-.2.3-.5.6-.8s.5-.1.7-.2,0-.2.2-.3.3,0,.4,0c.1,0,0-.2,0-.2,0,0,.3-.1.3-.1.2,0,.3,0,.6,0,.8-.3,1.6-.8,2.4-1.1,2.2-.8,4.8-1.4,7-1.6s5.6-.7,8.4-.6,2.6.5,4.3-.3,3.2-1.4,4.6-2.2.6-.5.9-.6c1.2-.7,2.2-1.1,3.4-1.8s.4-.1.5-.2,0-.1,0-.1c0,0-.2,0-.3,0h0c0,0,.8-.5.8-.5.1,0-.5.4-.5.4s0,0,0,.1ZM174.8,54.4h-.1s0,.2,0,.2c0,0,.1-.1.1-.2ZM172.9,55.1s.1-.5,0-.4-.1.2-.1.3c0,.2-.2.4-.1.7.1,0,0-.1,0-.2s.1,0,.1,0c0-.2,0-.3.3-.2h-.2ZM172.3,54.8c-.2,0-.2,0-.2.2l.2-.2ZM173.9,56.1h-.2s0,.2,0,.2c.1,0,.2,0,.2-.2ZM172.5,56.5l-.3.3c.2,0,.3,0,.3-.3ZM174.1,58.5v.4s0,0,0,0v-.4s0,0,0,0ZM172,58.9c-.4.1,0,.2,0,.4.3,0,.1-.2,0-.4ZM174.2,59.4v-.3c-.1,0-.2.6-.3.6l.3-.3ZM173.9,60.4c0-.1.2-.2,0-.3,0,0,0,.2-.1.2-.1.2-.3.1-.3.3l.4-.3ZM173.9,61s-.2,0-.2,0l.2.2c0,0,0-.2,0-.2ZM174.1,61.3v-.2c0,0-.2.2,0,.2ZM173.4,62.2c-.2,0,0,.4.2.3.2,0,0-.4-.2-.3ZM174.4,62.5c0,0,0-.2-.1-.2v.2s.1,0,.1,0ZM174.6,62.4c-.2,0-.2,0-.2.2l.2-.2ZM174.5,62.9c0-.2-.1-.2-.3-.3,0,0,.2.3.3.3ZM173.5,63.1c-.1,0-.3.4,0,.2s0-.2,0-.2ZM174.6,64c0,0-.2,0-.2,0s0,.8,0,1c.4,0,.1-.3.1-.4s0-.5.1-.6ZM174.6,65.9l-.2-.4c0,.1,0,.5.2.4ZM174.5,66.4c.1,0,.2-.2,0-.2v.2ZM174.6,66.7c0,0,0-.2-.1-.2v.2s.1,0,.1,0ZM179,72.3v-.5c0,0-.2.5,0,.5ZM175.2,82.3c0,0,0,0-.1,0-.3.3-.5.8-.8,1.1s-.2.4-.4.6c-.4.5-.9,1-1.3,1.5s-.7,1-1.2,1.4-.3.2-.5.4v-.2c-.4,0-.3.4-.5.6s-.9.8-1,.9-.2,0-.3,0-.2.3-.3.3c0,0-.2,0-.2,0s0,.1,0,.2c-.2.2-.4.2-.6.4s-.1,0-.2,0c0,0,.1.3-.2.3s0-.1,0-.1c0,0-.2.3-.3.2s.1-.2,0-.2c-.3.1-.1.3-.1.4s-.3.2-.3.2c0,0-.3,0-.3.2h.2c-.1,0-.1.2-.3.2v-.2c-.2.2-.7.3-.8.5s0,.1,0,.2-.1,0-.2,0c0,.1,0,.3,0,.3,0,0-.3,0-.4,0h.1c0,.4-.1.1-.4.1,0,0,.1.1,0,.2s0-.2-.1-.1,0,.2,0,.2c0,0-.1,0-.1,0,0,0-.2.2-.3.3-.1-.4.2,0,.2-.3-.2,0-.6.2-.4.4-.3-.1-.1,0-.3.1s-.2,0-.3,0h.4c0-.5-.5,0-.6,0s-.2,0-.2,0c-.1,0-.2.3-.2.3s-.2.2-.3.2c-.4.2-.8.3-1.2.5s0,.2-.3.1c.1.2.4.3.6.4s.2.2.2.3c.3.1.7.3.9.5s0,.4.4.2c0,.4,0,.2.2.2s.1.2.2.2c.8.4,1.2,1,1.8,1.6,1.4,1.5,2.3,3.3,3.2,5.1s1.4,2.4,2,3.8.1.2.2.2c0,.1,0,.2,0,.3s.2,0,.2.1c.1.2.3.7.4,1,1.3,2.6,2.6,5.2,3.7,7.9s.5,1.4.8,2.1c.2.2.3.1.3-.1s0-.4,0-.7.4-1,.4-1.1-.1,0,0-.2.2-.1.1-.3h-.1s0-.4,0-.4h-.1c.3,0,.3-.6.3-.6s.1,0,.2,0,0-.2,0-.3.3-.3.3-.4c.2-.6.1-.8.6-1.4s0-.5.2-.8.4,0,.4-.3-.3-.1-.2-.2.1,0,.2,0c.2-.2,0-.2.1-.4s.2-.5.2-.7c0,0,0,0-.1,0s0-.2-.2-.1.1.2.1.3,0,.3-.1.3c-.3,0-.1-.2-.1-.3s0-.2,0-.3.2-.2.2-.3h.1c0,.1,0,0,0,0,0,0,0,.2.2.2,0-.4.2-.3.2-.3,0-.1-.1-.1-.1-.1,0-.1,0-.1,0-.1.1-.2.1-.1.2-.2s0-.3.1-.4.2,0,.2-.1c-.1,0-.1-.2-.1-.2,0,0-.2.1-.1-.2h.2c0,.1,0-.1,0-.1h-.2c.1-.1,0-.4.2-.3h0c-.1-.2,0,0,0-.1s0-.2,0-.2c-.2.2-.3,0,0-.1,0-.1,0,0-.1,0s0-.2,0-.2c0,0,.2,0,.3,0s.1-.4.4-.3c0-.1-.2,0-.2,0,0-.1.1-.3.3-.3v-.2c-.2,0-.2.1-.2.1-.1,0-.3-.1-.3-.2.2,0,.4-.1.5-.2h-.2c-.1,0,0,0,0-.1s-.1,0-.1,0c0,0,.2,0,.2,0,0,0,0-.9.3-.5,0,0,.2-.5.2-.5,0,0-.7-.3-.7-.5.1,0,.2,0,.4,0,.2,0,0-.2.1-.2,0,0,.4.1.4,0,0-.3.2-.2.3-.4,0-.1-.3.1-.3.1s0-.1,0-.1c0,0-.2,0-.2,0s.1-.3,0-.2,0,.3-.1.3c-.1-.1-.3-.4-.2-.5s.1-.2.2-.2,0-.1,0-.2c.4-1.2,1-2.4,1.4-3.4s0-.2,0-.2.2,0,.3,0c0-.1-.2-.2-.1-.3s.2,0,.2,0c0-.2,0-.4.1-.5s.4-.5.6-.5v-.2c0,.2.1-.4.1-.4,0,0,.2,0,.2,0,0,0,0-.5.3-.4h-.2c.4,0,.5-.4.7-.6,0-.2-.2.1-.1-.2s.3-.2.3-.2c.2-.2.4-.7.8-.4,0-.1,0-.3-.1-.2h0c.2,0,.4-.3.6-.2s0,.2.2.1,0-.3.2-.3,0,.2.4,0v-.2c0,0,.3-.2.4-.2s0,.1,0,.1c.1,0,0-.2,0-.2,0,0,.7-.1.9-.2.3-.2.6-.4.9-.6s.6-.3.7-.3.4.2.6,0,0,0,0-.1c-.1,0-.6-.3-.7-.3-.1,0-.2,0-.3,0s-.8-.4-1-.4c-.4-.1-.8-.2-1.2-.3s-.2-.2-.3-.2c-1.3-.5-2.6-.8-3.8-1.5s-.2-.2-.2-.2c-.2,0-.2,0-.4-.2s-.4,0-.5-.2,0-.2,0-.4-.2,0-.1-.2.2,0,.2,0c-.4,0-.2.2-.4.4-.3-.3-.7-.4-1-.7s-.6-.5-1-.8-.3-.4-.3-.4-.2,0-.2,0,0-.2,0-.2-.3,0-.2-.2c-.6.2-.4-.4-.4-.5-.1-.1,0,.2-.2.1,0-.2-.2-.3-.3-.4s-.3-.3-.3-.3c0,0,0-.2,0-.2s-.4,0-.4-.3h.1c0-.4-.2,0-.2,0s-.2-.3-.2-.3c0-.2,0-.2,0-.3,0,0-.2,0-.2,0-.2-.3-.4-.7-.7-1s-.5-.2-.3-.6c-.2.2-.5-.2-.4-.2.1-.1.3.4.4,0-.2,0-.2,0-.3-.2ZM208.6,89.3s-.4.2-.5.2c.2.3.4,0,.7,0,0-.1,0,0-.2,0s0,0,0,0ZM209.1,89.5c0-.3-.3-.2-.2,0h.2ZM185.1,95c-.1,0-.2.2-.3.2-.1,0-.1-.2-.2.1,0,0,.4-.2.5-.3ZM200.4,94.5c0,0-.2,0-.2.1h.2s0-.1,0-.1ZM150.5,98.1c0-.3-.2-.2-.2,0h.2ZM200,94.8s-.4,0-.4,0,.4,0,.4,0ZM200.7,94.7c0,0,.2.2.2,0s-.2-.1-.2,0ZM150.1,98.2c0,0-.2,0-.2.1h.2s0-.1,0-.1ZM195.9,95.3l-.2-.2v.2s.2,0,.2,0ZM196.2,95.2h-.2c0,.1,0,.1.2.1h0ZM147.6,99c.1,0,.2-.2,0-.2s0,.1,0,.2ZM193.6,95.7h-.2c0,.3.2.3.2,0ZM145.5,99.3h-.2c.2.4.3.4.2,0ZM143.5,99.7c0,0-.2,0-.3,0l.3.3c.2,0,0-.2,0-.2ZM181.8,100.1h.4c0-.1-.3-.2-.4,0ZM181.3,102.2c0-.2-.2-.3-.3-.2s0,.1,0,.2h.3ZM181,102.5c-.2,0-.3,0-.1.2v-.2ZM180.7,104.8h-.2s0,.1,0,.1c.1,0,.2,0,.2-.1ZM183.8,104.9c.1,0,.2-.2,0-.3v.3ZM180.9,105h-.1s0,.2,0,.2c0,0,.1-.1.1-.2ZM179.7,108.6l-.3.2h0c0,0,.3,0,.3,0h0Z"/>
        <path class="st0" d="M160.3,87.9c-.1.2-.4.3-.6.3,0-.2.4-.3.6-.3Z"/>
        <rect class="st0" x="159.1" y="88.4" width=".3" height=".1" transform="translate(-20.7 60.1) rotate(-20.1)"/>
        <path class="st0" d="M162,86.9c0,.1-.1.1-.2.1,0,0,.2-.2.2-.1Z"/>
      </g>
    </g>
    <path class="st0" d="M180.4,101.7l-.3.4c0-.2,0-.5.3-.4Z"/>
    <path class="st0" d="M180.6,101c0,.1,0,.2-.1.2v-.2s.1,0,.1,0Z"/>
    <path class="st0" d="M180.2,102.2c.1.2-.3.2-.2,0h.2Z"/>
  </g>
</svg>