<?xml version="1.0" encoding="UTF-8"?>
<svg id="Capa_1" xmlns="http://www.w3.org/2000/svg" version="1.1" viewBox="0 0 245.7 242.3">
  <!-- Generator: Adobe Illustrator 29.4.0, SVG Export Plug-In . SVG Version: 2.1.0 Build 152)  -->
  <defs>
    <style>
      .st0 {
        fill: #d00000;
      }
    </style>
  </defs>
  <path class="st0" d="M178.5,160.8c.1.1.2.9.1,1.1-.5,0-.6-1.5-.1-1.1Z"/>
  <path class="st0" d="M49.6,51.6c0,.2-.3,0-.3.2s.4.6-.3.6l.6-.9Z"/>
  <path class="st0" d="M179.8,174.2s-.2.6-.4.6c-.1-.3.2-.7.4-.6Z"/>
  <path class="st0" d="M120.6,36.2c-.5,0-.5,0-.4-.4l.4.4Z"/>
  <path class="st0" d="M118.2,34.5h0c-.3.2-.4.4-.6,0h.6Z"/>
  <polygon class="st0" points="240.8 94.5 240.8 95.1 240.7 95.1 240.5 94.5 240.8 94.5"/>
  <polygon class="st0" points="92.7 176.8 92.4 176.8 92.5 176.2 92.7 176.2 92.7 176.8"/>
  <rect class="st0" x="92.8" y="181.1" width=".1" height=".7"/>
  <path class="st0" d="M94.2,187.2h-.3s0-.4,0-.4c.2,0,.3.2.3.4Z"/>
  <path class="st0" d="M223.8,82.3c-.1.4-.4.3-.4-.1h.4Z"/>
  <g>
    <path class="st0" d="M92.7,175.4c-.5-.2,0-.9-.1-1.3.4.2.1.9.1,1.3Z"/>
    <path class="st0" d="M92.8,173.5c-.7,0-.1-.9-.3-1.3.5.2,0,.9.3,1.3Z"/>
    <path class="st0" d="M92.8,171.8c-.5,0-.1-.3-.1-.7h.1s0,.7,0,.7Z"/>
    <g>
      <path class="st0" d="M166.8,203.5s-.5.2-.6.4v-.9c.4,0,.7.2.6.4Z"/>
      <path class="st0" d="M79.9,111.9c.2.2,1,.7,1,.8.1.2,0,.4,0,.6l-.5-.6c-.6.6-.4,0-.6,0s-.7-.3-.7-.4.3-.6.4-.6c.4,0,.4.2.6.4Z"/>
      <path class="st0" d="M72.8,115.4c-.3.3-.6-.6-.2-.6s.3.5.2.6Z"/>
      <path class="st0" d="M73.4,115.6c0,0-.4-.1-.4-.2,0-.4.6,0,.4.2Z"/>
      <g>
        <g>
          <path class="st0" d="M207.3,82.3v.7c-.4,0-.5-.5-1-.1,0-.4,0-.2.2-.3s.8-.3.8-.3Z"/>
          <g>
            <path class="st0" d="M216.9,85.1c.1.5-1.2.7-1.1.4s.9-.3,1.1-.4Z"/>
            <path class="st0" d="M217.7,85.3c.1.6-.4.6-.9.6,0-.8.3-.5.9-.6Z"/>
            <path class="st0" d="M218.1,85.4c.5-.1.8.3.4.4s-.8-.3-.4-.4Z"/>
            <path class="st0" d="M226.1,86.8s0,.3,0,.4h-.9c0-.3.8-.5.9-.4Z"/>
            <path class="st0" d="M224.3,83.3c-.2.5-.7.3-.7-.1h.7Z"/>
            <path class="st0" d="M220.9,85.4s0,.2,0,.3h-.4s0-.4,0-.4c.1,0,.4.1.4.1Z"/>
            <path class="st0" d="M244.1,113.4h-.4c0,.1,0-.3,0-.3.2,0,.5.2.4.3Z"/>
            <path class="st0" d="M221.9,86.7v.3s-.4,0-.4,0c0-.2.2-.3.4-.3Z"/>
          </g>
        </g>
        <g>
          <path class="st0" d="M191.1,36.9c0,.3-.2.6,0,1-1.2,0-.7-.2-.8-.6s-.3-.4-.3-.7.3-.2.3-.3,0-1.2-.1-1.2-.8,0-1.1-.3-.2-.3-.3-.4c-1.6-1-3.1-1.7-4.9-2.3s-1.7-.3-1.8-.4-.1-.6-.3-.7c.7.1,1.3.3,2,.3-.4-.9-.8-.5-1.3-.6s-.3-.2-.5-.2c-.3,0-.6.2-.8.1s-.4-.5-.7-.5l.3-.9c0,.5.4,0,.8.1s.6.9,1.2.2c-.5-.2-.1-.1,0-.4s-.2-.5.1-.6c.3.2.7.2,1,.3s.1.2.2.3c.4.2,1.5.6,1.7.9s-.2.4-.1.5c.9-.5,1,.3,1.5.5,1.4.8,3,1.2,4.4,2.2s1.6,1.3,2.1,2.1h-1.4c0-.2.4-1-.1-.9,0,.5-.1.8-.4,1.1.6,0,.9.5,1.3.8s.4,0,.5.1.2.6.3.8.4.3.5.5-.4,0-.3.4h.4s-.1.3-.1.3c.6,0,.7.7,1.3.4,0-.6-.5-.7-.9-1.1h.4c0,0-.1-.5-.1-.5.4,0,.8.4,1,.8s0,.3,0,.5.2,0,.2,0c0,.1-.2.4-.1.5s.4-.2.4.1c-.7.3-.5-.1-.8-.1-.9,0,.4.6.5.6,0,0,0,.3,0,.3.2.2.7,0,.5.5-.6-.4-1.7.1-1.8-.7-1.2,1.7.7.6.8.7-.1.7.3.3.7.5s.8.5,1.1.6c.3-.7.4-.1.5.3-.5,0-.8-.3-1,.3.4-.2.7,0,1.1.1-.3.4-.6.2-.1.7-1.4,0,0,.4.1.6s.2.9.3,1.1.3.1.3.2c0,.4-.3.7-.3.8,0,.2.5.3.5.5s0,.5.2.7.3,0,.3.2,0,1.1,0,1.1c0,.2-.3.4-.3.4,0,.2.5.3.5.4s0,.2,0,.3.1.3.1.4-.3,0-.3.1c0,.3.5.7.5,1.2,0,.8-.1.4.1,1.3s-.2.9.5.6c0,.4-.3.5-.3.9,0,.6.2,1.7.2,2.4s0,.4.1.6c.1.7.1,2.1.3,2.7s.4.2.4.3c0,.2,0,.6,0,.9l-.4-.4c0,.2-.2.8-.1.9.3.3.3-.6.6-.3s-.1.7,0,.9c0,.2-.2,0-.3,0-.2,0-.3.8-.2.8s.4,0,.4,0,0,.4,0,.4c0,0-.4,0-.4,0-.2.2.4,1.3-.2,1.8-.9.8-1.5-.4-1.1-1.2l-.6.6c0,.2.1.8,0,.9s-.3-.2-.4.3.3.1.3.3c-.1.3-.5.9-.6,1.1-.2.5,0,.9-.4,1.3.9.4-.3.3-.4.6s0,.6,0,.9-1,2.6-1.1,2.8c-.3.4-.6.6-.8,1.3s.1.7,0,1l-.3-.3c.1.7-.4,1-.6,1.5s-.4,1-.5,1.2-.4,0-.4.1-.5,1.6-.7,1.9-.5.2-.7.4c-.3.4-.2,1.6-1,1.5l.3.4c-.7,0-.5.4-.6.9s-.5.5-.7.9,0,.6-.1.7c-.1.2-.5,0-.5.3,1.1.4,1-.3,1.5-1s1.3-1.5,1.9-2.3,0-.5.2-.6.5,0,.5,0,0-.5,0-.6c.3-1.1.7-1,1.1-1.6,1-1.3,2.8-5.3,3.2-6.9s.4-.6.3-.9-.3-.3-.3-.6c.2,0,.5.6.6.3s.2-.6.2-.7c0-.2-.4-.1-.4-.3.6,0,.8-.7.8-1.1l-.4.3c0-.2,0-.4.2-.6.2-.5.7-.9.9-1.5s-.2-.3.3-.2.8.4.6.5c-.1.7-.4,1.5-.6,2.1-.3,1.2-.5,2.2-.8,3.3s.1.3,0,.5c-.2.4-.5.3-.7.6-.6.8-.7,3.2-1.3,4.1s-.4,0-.4.1-.5,1.4-.7,1.7c-.7,1.3-1.9,3.2-2.8,4.5s-.8.7-.9,1c-.2.5,1-.2,1,.2l-.9.4c1.3.5,2.1-.4,3.3-.6l-.6-.3c0-.2.4-.4.5-.4.3,0,0,.3.3.3,0-.5,1.3-.6,1.7-.7.7,0,1.1.2,1.3.2s.2-.3.4-.4c.4-.1,3-.2,3.2,0s.2.2.1.2h-.4c.9-.1.4.5.4.6.4.2.3-.4.4-.4.4,0,.1.3.2.4s.6,0,.6,0c.1,0,0-.3.3-.3.4,0,1.1.2,1.5,0,1-.1,1.4-.3,2.4-.4s0-.3.2-.3c.2,0,.8.3,1.3.2s1.2-.2,1.7-.2,2,.1,2.5,0,.1-.4.3-.4.8,0,.8,0c.2,0,.3.3.5.4s1.1-.4,1.5-.1v.6c-.1,0,.1-.2.3-.2.7-.2,1.7,0,2.4.2s1.6,0,.9.6-1.8,0-2.3,0-.6,0-.9.2l-.5-.4c-.1,0,0,.2,0,.3-.2.3-.7,0-.7.6l-.4-.6c-.4.8-1.1.5-1.8.5s-.9.1-1.1.1,0-.7-.4-.7v.8c-.5.4-1.4-.2-1.9,0s-.4.4-.6.3-.2-.2-.3-.2c-.3,0-.4,1.1.8.7s.1-.3.2-.3c.5,0,.6.3.6.7-.2,0-.4,0-.6.1l.4.6c.3,0,.2-.5.1-.7.1,0,.3,0,.3,0l-.3-.5c.8-.2.5.5.8.6s0-.3.1-.3c.2,0,.4.3.4.3,0,0,.3-.6.7-.6s0,.3.1.3c.3,0,.9-.5,1.1,0-.4,0-1.5,1.1-1.1.3-.8-.2-1.1.6-1.9.4v.4c.3,0,.7,0,.9,0s.2,1.1.4.2c.5.4.7-.1.4.7,1.8.2.9-.2,1.1-.6s.5,0,.7,0,0-.3.2-.3c.4.2,0,.8,0,.9.8,0,.4-.8,1.3-.7-.1.2,0,.7,0,.7,0,0-.3,0-.3.2.4.3.7.4,1.3.3,0-.2-.3,0-.3-.2-.2-.9.8-.2.9-.2.2,0,.5-.3.7-.4.3,1,.4.5,1,.6s.3.2.5.2c.7,0,1.7-.7,2.8-.2s.1.4.6.2,0-.2.2-.2c1-.4,1.2.5,1.8.9s.8.2.8.2c0,0,.1.3.2.4.4,0,.5-.3.5-.6.7.1.2.4.3.6.4-.3.3.3.5.3.3,0,.3-.8.5-.9s.7,0,.7,0c0,0,.1.8.5,1.1s1,.4,1.2.5.6.8,1,.7.3-.3.3-.3.8.3.4-.2-.4,0-.6,0-.1-.3-.2-.3-1.1,0-.3-.4c-.5-.3-.6-.1-.6-.8-.4,0-.2.7-.5.6-.6-.2-1-.8-1.4-1.1s-2-.9-1.3-1c.8-.3,1.3,1,1.6.3-.4,0-.6-.4-1-.5s-.3,0-.4,0,0-.3-.4-.6-.1-.3-.2-.3c0,0-.9.2-1.3.1s-.9-.4-1.3-.5-.5-.1-.7-.2c-.4,0-1.3,0-1.7,0s-.6-.5-.6-.5c-.3,0-.7.4-1.2.1,0-.4.5-.4.6-.8s-.3-.2-.4-.2c-.3-.3.9-.4,1.1-.4.4,0,.7.1,1.3.2s.6.2.8.2c.3,0,.3-.6.4-.6.1-.1.8.2,1,.1v.3c.6.1,1.5.3,2.2.5,2.5.8,5.9,2.9,7.6,4.8s.3,0,.4.1c.3.3.1,1.2.4,1.4.4.4,1.4-.1.8,1.3,1,0,.6.2,1,.8s.7,1,.9,1.4,0,2,.6,1.6-.4-.5.1-.4v.7c.8-.2,1.4,1.1.4,1.6.7-.2.7-.2.3.4,1.2,0,.7.3.9.8s.3.3.4.5-.2.6-.1.9l.3.3c-.3,0-.4-.2-.7-.3s-.7.2-.7-.4c.7.2.2-.3.3-.4s.2,0,.2,0c.7-.3,0-.7-.5-.6v-.4c.1,0-.7-.1-.7-.1l.3.6c-.9,0-.4.7-.6.9-.2.3-.3-.4-.4-.3v1c.1,0,.6-.5.6-.5.7.6-.1,2,1.1,1.3v-.6c.2,0,.6.5.8.5.4,0,.7-.1.8-.1,0,0,.5,1.4.5,1.7s.3.7.3.9c.1.4.2,1.1.3,1.6l-.3.2c.3-1.2-.8-.6-.9-.9s.4-.4.4-.7c.1-.7-.8.4-.8.7s.7.4.8.8-.2.8-.2.9h1.3c0,.1,0-.3,0-.3.6.3.3,1.9-.2,1.6s0-.8,0-.9c0-.1-.9-.3-.9-.3,0,.2.1.7.2.9s.3.1.3.2,0,1.1.3,1.3c0,.5-.5,0-.6,0-.2.3.4.7.6.7s.2-.5.5-.3v-.9c.5.2.3,1,.1,1.5s-.7.5,0,.5c0,.3-.2,0-.3.1,0,0,.7.5,0,.6.6.4-.3.5-.3,1.1h1c0,.1-.1,1-.1,1-.3.1-.3-.5-.7-.3s.3,2,.3,2.1l-.6-.4c.1.4-.3,1.1.1,1.4s.4-.8.6-1c.4-.5.7.4,0,.7,0,.1.3,0,.3.1s-.2,1.2-.2,1.4c0,.2-.3.4-.4.6-.3.5-.3.9-.4,1.5s.3.6-.5.1c.2-.2.4-.8.4-1s-.2-.4-.3-.4c0-.2.5-.2.6-.3.1-.5-.3-.9-.3-.9s.6,0,.4-.4h-.9c-.2,0,.9.7-.3.6,0,.3.4,0,.4.1s-.2,1.2-.3,1.3c0,.2-.4.2-.4.3-.1.4.5.8-.3,1.2.3.1.7-.4.9-.3s0,.5-.3.5c.6,0,.6,1.9.5,2.1s-.3.1-.3.2.3.6,0,1-1.7.4-.5.9c0,.2-.3,0-.3.2-.1.4.3.9-.4.8.4.6-.3.5-.4.6s0,1.2-.3,1.5-.4,0-.6.4c-.7,1.9-1.2,2.5-2.4,4.2-2.1,2.8-3.8,4.5-6.8,6.5s-2.2,1.9-3.2,2.3-.5,0-.6,0c0,0,0,.5,0,.6s-.4,0-.5,0,0,.3-.3.5c-.8.5-1.8,1-2.7,1.4s-1.9,1-2.9,1.4-2.2.6-2.9,1.5l-.2-.4c-.2.9-1.2.9-1.7,1.2-3.2,1.6-6.7,2.6-10.2,3.8-2.5.8-5.1,1.2-7.5,2-3.9,1.3-9,1.9-13.4,2.6s-4.6.6-6.6.7-1.3-.2-1.6.1-.1,1.2,0,1.3c.3.2.6-.5.8-.1s-.5.4-.6.6c.3.3.2.8.3,1.1s.7,1.3.9,1.9,0,.8,0,1.1.6.9.6.9c0,.3-.7.3.3.9h-.3c0,.2.6.2.3.5s-.6-.2-.4.4c.3.2.6-.5.9-.3s-1.2,1-.3,1.2l-.4.6c.8-.1.5.2.6.4s.3,0,.3.3,0,.9,0,1.1-.4-.1-.4.2c.4-.3.7.8.7,1.1s-.4.3-.4.6h.4c0,.4-.4.1-.4.2-.2.2.9,1.4,0,1.4,0,.2.3,0,.3.2,0,.3-.3.8-.2,1.2-.4.3-.3-.8-.6-.4s.3.8.3.9c0,0,.2,0,.3.1,0,0-.1.9-.2,1-.1.2-.4,0-.5.2s-.3.9-.3.9l.7-.2-.3.3c.7.9.5,2,.4,3.1-.5.2-.6-.4-.7-.9s.1-1.2,0-1.3c-.4-.4-.7,1.5-.7,1.7,0,.2-.3,1.3-.3,1.4,0,.3.4.6.1,1.1.8,0,.3-.6.6-1.2s.4-.5.5-.5c0,.4-.2.8-.3,1.1s0,.8,0,.9c0,.4.4.3-.3,1s-.2,0-.2,0c0,0,.4.3.3.6-.1.1-.8-.4-1,0s.7.2.6.6-.3.9-.3,1-.7.5-.7.6c0,.1,0,.5.2.4s0-.5.5-.4c.2.4-.3.5-.3.5,0,.1.2.3.1.6,0,.8-.4,1.2-1.2.9.5.6.1,1,0,1.6s.2.6-.4.6l.4.6-1,1v.5s-.4-.4-.4-.4c-1,.4-.2.8-.4,1.6s-.3.3-.4.4c-.2.4-.3,1.5-.5,2s-1.3,1.9-1.5,2-.5,0-.5,0c-.1.1.1.6.1.7s-.7.7-.8.8c-.1.2,0,.5-.2.6s-.3,0-.4,0,.3,1-.4.6c-.2.5-1.1,1-1.3,1.4s.1.8-.7.6l.3.2c0,.3-.3.7-.6.8s0-.4-.3-.3,0,.5,0,.6-.4,0-.6,0-.7.9-.9,1c-.3.3-1.7,1.4-1.9,1.6-.3.4-.4.4-.6.6s0,.5-.2.6-.6-.2-.7,0,0,.3-.2.5c-.3.4-1.5,1.1-2,1.5s-1,1.3-1.7.9v.4c-.6-.2-.3.3-.6.5s-.8.5-.9.6c-.7.4-1.3.6-1.9,1.1s-1.2.5-1.8.8-2.5,1.6-3.3,1.8-.1-.1-.7.2-2.5,1.2-3.1,1.4-.6-.2-.8-.1,0,.4-.2.3v-.3c-1.2.6-2.7.8-4,1.1h.6c.2.3-1,.6-1.2.6-2.3.5-5.9.6-8.3.5s-5.4,0-8-.5-.3-.1-.4-.1l.3-.3c-1.6-.5-3.4-.7-4.9-1.1-3.7-1-10.5-5.2-13.2-7.9s-6.5-8-8.4-11.9-1-2.6-1.7-3.8c1-.2.2-.5.2-.6-.5-1.5-.9-3.1-1.3-4.6-.7-2.7-1.2-5-1.4-7.9s-.1-7.6,0-11.4.4-1.1-.2-1.1-.3.9-.4,1-.3-.1-.5,0c-.9.3-1.7,1.6-2.4,2.2s-2.7,2.1-3.5,2.6-.7.3-1.3.8c-13.3,9.8-28.9,16.2-45.6,18.8-1.6-.3-3.4.3-4.9.6s-.5-.2-.8-.3c-.5,0-1.2.2-1.7.2-8.5,0-18.7-3.2-24.1-9.9s-1.3-2.6-2.1-3.2-.3,0-.3,0c-.1-.2.1-.5,0-.8s-.5-.2-.7-.4,0-.4,0-.5-.3-.2-.4-.3c-1.1-1.8-2.3-6.6-2.8-8.8s-.6-1.2-.4-2,.3-.3.3-.4c.3-.6-.3-1.2-.4-1.8s.2-1.5.3-2.2c.6-6.1,2.4-10.3,5.2-15.6,4-7.5,9.1-14.8,14.8-21.2,2.5-2.8,5.6-5.5,8.6-8s2.3-1.8,3.6-2.6c0-.8,0-.3.8-.6s.6-.5.8-.6c5.9-3.6,10.9-6.5,17.3-9.2.4-.2,2.8-1.1,2.9-1.3s-.1-.9-.2-1c-.2-.5-1.4-1-1.8-1.3-.8-.6-1.2-1.7-1.8-2.3s-.2,0-.6-.7-1.2-1-1.5-1.4c-.5-.7-.2-1-.4-1.3s-.4-.3-.5-.5c-1.4-2.5-3-4.8-3.9-7.4s-.5-1-1.1-2-1.3-3.4-1.7-4.7c-.6-2-1.1-4.3-1.5-6.2s.2-1.5.2-2-.2-1.2-.1-1.5.4-.2.4-.3c0-.3-.2-.7-.1-1.3.3-2.2.7-3.8,1.5-5.8s-.2-.6.2-.7v.6c.5-.2.4-.8.6-1.2s.4-.4.5-.5.9-1.8.8-1.8c-.8.3-.8,1.5-1.6,2,0-.3.1-.7.2-1,.5-1.6,1.6-3.4,2.7-4.6s.8-1.7,1.1-.2c.2-.3,1.7-2.6,1.9-2.6.8,0-.3.8-.4,1s-.3.5-.3.7c.7.3.5-.2.8-.5.6-.7,1.5-1.7,2-2.4s0-.4,0-.5c.3-.4,1.6-1.1,2-1.4s.4,0,.4,0-.2-.3,0-.4c.2-.4,1.9-1.1,1.9-1.2s-.1-.2,0-.4c.3-.6,1.1-.9,1.4-1.4.7.1-.5.7-.2,1,.2,0,1.4-.6.9-.7s-.4.1-.3-.2c.1-.5,1.9-2.1,2.6-1.9-.5.4-1,.9-1.7,1.1,0,.2.2,0,.2.2s0,.6.3.7c.4-.4-.1-1.1.6-.7v-.6c.3.2,1.2-.6,1.3-.9s-.8-.1.2-.6v.3c0,0,.8-.1.8-.1h-.4c0-.9,1-1.1,1.5-1.4s.5-.6,1-.5v-.4c.7.2.5-.2.8-.5s.5-.2.6-.2,0-.4,0-.4c0,0,.4.1.5.1s0-.2.2-.3c.5-.2.9-.1.6-.9l.9.3c0-.2,0-.6,0-.7s1.2-.7,1.3-.8c.3,0,.6.1.8,0s0-1,.6-.7-.4.7,0,.9c.5-.5.8-1.2,1.4-1.6v.6c1.4,0,.8-.3.9-.5s1.5-.8,1.9-.9.7,0,.8,0c.4-.3-.6-.2-.1-.5.7-.5,1.5-.2,2.1-.9.4-.1,0,.3.4.3-.1-.6.2-.4.4-.5.4-.3.6-.6,1.2-.7s.7.2.9.2.2-.4.3-.5.4,0,.4,0c0,0-.2-.4-.1-.5,0-.2.3,0,.4-.1,0,0,.2-.5.3,0s-.3.6,0,.8c0-.3.5-.5.6-.6.1-.2-.4-.4.6-.7s.3,0,.4,0,0-.3.3-.3c.4.1-.1.5,0,.6.4.3.7-.8.7-.9.3-.2.3.3.4.3s.4-.2.6,0c-.1-.9.1-.4.6-.6s1.2-.4,1.7-.5,0,.3.1.3c.3,0,1.1-.2,1.5-.2,1.6-.2,3.3-.6,4.9-.8s1.4-.7.7.5l.9-.3-.6-.4c.6,0,1.3-.2,1.9-.3,1.1,0,3.4-.2,4.4-.1s1.8.2,2.5.3c3.2.4,7.9.9,11,2.4s.7.4.7.4c.2.3-.4.9.7.6v.4c.6-.4.8.5,1.3.8s.5,0,.7.1.1.4.4.7.6.2.9.4c.4.3,1.8,1.4,2.1,1.9s.3,1,.5.3c.2.4.7.4.5,0s-.3-.2-.4-.3c-.1-.2,0-.4-.2-.6s-.7-.5-.2-.5c.7.4,1.3.7,1.7,1.4s0,.3,0,.3c0,0,.5,0,.8.2s.6.6.6.7c.1.4-.7,2.2.4.9.3.3.5.5.8.8.6.6.9,1.2,1.4,1.8s.9,1.3,1.5,1.9,1.1,1.6,1.2,1.7.3-.1.3,0c.2.4-.2,1.3.6.8.4.3.4,1.1.5,1.2s.3,0,.5.2c.4.3.8.3.8.4.3.2.4,1.5,1.2,1.5s.3-.2.5-.7.6-.6.7-.8-.1-.4,0-.5.8-.4.8-.5-.1-.3,0-.4c.2-.4.8-.9.6-1.4.7-.1.5.5.6.6s.2-.2.4-.3.4.2.5.1c.3-.2-.2-.3-.3-.4-.2-.4.6-.6.8-.7s.2-.4.3-.4c.1,0,.4.1.6,0s0-.4.2-.5.4,0,.4,0c.2-.1-.4-.6-.2-1s1.1-1.1,1.4-1.6.2-.4.3-.5c.7-.8,1.5-1.4,2.2-2.2.6.3.2-.1.3-.3s.4-.2.5-.4c.6-.6.8-1.1,1.6-1.6s.5-.1.5-.1c.3-.3-.6-.4-.7-.4.3.4-.1.3-.4.5s-.3.5-.7.5.5-.8.6-.9c1-.8,2.3-1.5,3.3-2.2s.2-.4.5-.6c.7-.5,1.3,0,1.3,0-.4.1-.4.1-.9,0,.1.1,0,.5,0,.6s.7.2.7.2.1-.6.1-.6c0,0,.3.2.4.1s.2-.4.4-.5c0-.1-.2,0-.3,0s-.2-.3-.1-.3h1.7c0,.1-.3-.6-.3-.6.6.1,1.5,0,1.9-.4s0-.4,0-.4c.1-.1.5.3.6.3s0-.3.2-.3c.3,0,.7,0,.9,0s1.2-.9,1.6-1,.6.2.8.1,0-.2.1-.2c.8-.2,4.4-1,5-.9s.2.4.5.3c0,.3-.6,0-.8,0s-.6.4-.7.5h.6c0,0,2.3-.6,2.3-.6l.2.6c.2-1.1.8.2,1.5.1l-.3-.6c.3,0,.8-.2.9-.6l.4.4v-.6s.1.3.1.3c1,.2,1.9-1.4,2.8-.7s.2.4.2.4c.1,0,.9-.5,1.1.4,0,0-1,0-.9.6h.7c0-.1,0,.7,0,.7.6,0-.1-.8.8-.6v.5c.5.3.2-.6.2-.6.5-.4.7.2.9.3v-.4c1,.2,2.1-.3,1.6,1.1-.5,0-1.3-.1-1.8,0s-1.1.2-1.6.2-.2-.2-.3-.3-.7.1-.8,0c-.1,0,0-.5-.4-.4.2.6-.5,1.1-.3,1.9.5,0,1.3-.2,1.1.4,0,0,.6-.7.6,0h.1c0-.2,0-.4.3-.3s-.1.3.1.6c.2,0,.5-.9.9-.6s-.6.4-.3.7.3-.4.6-.4.4.2.6.2c1.3.1,2.6,0,3.9.3,0,.3-.8.4-.9.4s.3.9.5,1c.2,0,.8-.9,1-1s.9.1,1.2.1.2-.3.3-.3c.3,0,1,.6,1.1.9-.2-1,.7,0,1.2.2s1.2-.4.9.7l.4-.3c.1.3,1.1.4,1.3.4s.2-1.1.5-.3l1,.3-.4-1.1c.3,0,.9,0,1,.4s-.6.2-.3.5.5-.4.5-.4c.6.2.9.9.2,1.2s-.3-.4-.7,0-.7,1-.7,1,.5.1.4.4c.2,0,.2-.4.4-.4s.6,0,.7,0,0-.2,0-.4c.1-.2.5-.5.6-.8.5.2.7.8.9,1s.8.3.9.8c-.1.1-.4,0-.3.3s1,2.1,1.1,2.2.3.1.4.2,0,.2,0,.2c.1,0,.6-.6.7-.6s0,.3.2.3.4,0,.6,0,.3.6.7.4c0-.3-.1-.6-.4-.8h.3c0,0,0-.6,0-.6-.4-.2-.3.3-.3.3-.1,0-1.1-.4-1.2-.3-.3.3.3.4.3.6-.7.2-1,0-1.1-.7h.4c0-.1-.6-.3-.6-.3l.3-.2-.6-.8.7-.3v.7c.6,0,1.1,0,.8-.8s-.8-1-.8-1c-.1,0-.3,0-.4,0,0-.2,0-.4,0-.6-.6.2-.6.4,0,.6ZM181.6,29.8h-.4c-.4.2.2.5.4,0ZM169.1,30s-.6,0-.7-.1v.7c.2,0,1-.2.7-.6ZM170,30.1c-.3,0-.6-.3-.7,0s.6.4.7,0ZM171.1,30.4s0-.4,0-.4c-.5.4-1.5,0-.5.9,0-.5.5-.4.6-.4ZM168.1,30.5c-.2-.5-.6-.2-1-.1.1.2.4.1.3.6l.7-.4ZM166.2,31.4v-.7s-.1,0-.1,0v.7c-.1,0,.1,0,.1,0ZM166.8,31.1h-.4s0,.3,0,.3c.2,0,.4,0,.4-.3ZM100.4,32.4c0-.4,0-1.1-.6-1.1,0,.7-.2.8.6,1.1ZM101.9,31.5c-.3-.2-.6.2-.6.6.3,0,.7-.4.6-.6ZM104.9,31.5c-.6-.1-.6.2-.2.6l.2-.6ZM170,31.8s-.5-.2-.5-.2c-.1,0-.1.3-.2.4s-.3-.1-.6,0-.6.6-.4.8l.8-.6v.6c.2,0,1.1-.7.9-1ZM106.4,31.8c-1.1-.2-.5.6-.6.7-.3.4-1.3.3-1.5-.3-.1,1.3-.8.4-1.3.5s-.1.4-.3.4c-.6.1-.7,0-.6-.6-.3.1-.5.4-.4.7s.6,0,.8.2.4.9.6.8c-.2-.5,1.4-.2,1.4-.1-.3.7-.5.6-1.1.4-.2.3.7.6.9.6s0-.2.2-.3.3,0,.3,0-.3-.5,0-.6c.1.2.9.2.9.4.3.9-.6.5-.6,1.1,1.2.3.8-.2,1.2-.5.5-.5.8.2.9.2s.9.2.9.1c0,0,0-.3.2-.3.4.6-.5.4-.3,1.1.5-.3.7,0,1.1.1v-.6c.4.1.5.8.7.9s.6,0,.7,0,0,.7.4.8c.3-.8.4,0,.5.2.6.7.7.3,1.2.4s1.3.9,2.1,1.1,1.2,0,1.3.1c.3.1,1.3,1.4,1.6,1.2s0-.5.3-.3,0,.7.4,0l-1-.9c-.2-.2-.7.3-.8.2-.3-.2.9-.8.9-.8.1-.2-.1-.5,0-.6.2-.2.6.5.7.5.1.2-.9.5-.2.8s.2-.8.6-.9c.3.9.7.7,1.5.7-.2-.8-.9-.2-.9-1l-.2.3c0-.2-.6-.2-.6-.3s.2-.8,0-1-.6-.4-.7-.4c-.2,0-.4.3-.4.3-.2,0-.3-.9-.4-1.1-.3-.6-1-.6-1.4-.9-.7-.4-.4-.2-.9-.3s-1.1-1.4-2-.9c.2-.3,0-.7-.3-.9s-2.4-.9-2.8-1.1-1.1.2-1.3-.3c-.2,0-.5.5-.5.6.5-.2.7.6.6.7s-.5,0-.6.2c-.3-.2,0-.5-.3-.4s-.2.5-.8.3v-1.3ZM187.1,31.8h-.4c-.3.4.7.4.4,0ZM100.8,33.1c-.1-.2.1-.6-.2-.5-.2.9,0,1.1.9,1,0-1.2-.3-.3-.4-.3s-.3-.2-.3-.2ZM167.8,32.8c-.1-.2-.6.3-.4.4.2.2.6-.2.4-.4ZM95.3,33.6c0,0,0-.4-.3-.4-.1.8.3.8,1,.7.1-.5-.4-.2-.7-.3ZM98.9,33.5c-.5.3-.9.1-1.2.1s-.3.5-.8.3c0,1.1,1,.2,1.6.4s.2.7.7.7c.2,0,0-.4,0-.4.2-.2,1.4,0,1.7.2s.3.2.6.3.3-.8.4.1c.4-.2.3-.8.9-.4,0-.4-.2-.4-.5-.3v-.3c-.4.1-1.2.2-.8-.4-1,.2-1.9,0-2.9.1v-.4ZM94.7,34.1c-.1,0-.5-.2-.6-.1-.2.2.4.7.6.1ZM175.1,34.2h-1.1c-.2.4.5.3.6.4s-.4.4-.1.7c.4-.6.6-.4,1.3-.1v-.4c.5.2.4.2.6-.3h-1.3c0,.1.1-.3.1-.3ZM177.6,35.4c-.4-1-.8-1.3-.7,0h.7ZM178.9,34.8c-.2,0-.4,0-.4.3h.4s0-.3,0-.3ZM180.5,35.9c0,0,.5,0,.5-.2l-.3-.8c-.2.1-.3.9-.2,1ZM179.1,35.5c.2.2.6-.4.2-.4s-.3.3-.2.4ZM175.4,35.5h-.6s0,.1,0,.1c.3,0,.4.2.6-.1ZM169.2,35.8c.1.4.4.3.4-.1h-.4ZM167.4,36.4c0-.1-.4-.7-.4-.6,0,.5-.1.7.4.6ZM101.7,36.1c.2.4.9.4,1.1,0h-1.1ZM185.9,35.9s-.3,0-.3,0c.3.7.6.2.3,0ZM96.9,36.1c-.1-.1-.6.3-.4.4s.6-.2.4-.4ZM105.4,36.5c-.1-.1-.1-.5-.5-.4.3.5,0,.3-.1.6.5,0,.9.4,1.4.1,0-.3-.5,0-.8-.3ZM104.2,36.4c-.6,0-.7-.4-.9.3l.9-.3ZM166,36.2c-.3,0-.3.2-.4.4h.4s0-.4,0-.4ZM188.9,37.7c0-.2,0-.5-.2-.6-.3-.1,0,.7-.6.4.2.5.5,0,.9.1ZM189.9,37.9c-.2,0-1.1.2-1,.5s.6-.2.9,0c-.3-.4.1-.1.1-.4ZM189.8,39.2l-.2-.6c-.4.2,0,.4.2.6ZM192.2,39.1h-.4v.3h.4v-.3ZM71.8,114.4c-.8-.3-2.6-.6-3.2-1.1s0-.2-.8-.6-.3-.5-1-.4-2.5.9-2.6,1.1,0,.3,0,.3c0,0-.7-.2-1.2,0-2.1.8-4.8,2.2-6.8,3.2s-2.1,1.5-2.9,1.8-.5,0-.5,0c-.3.2-1.1,1-1.6,1.3-12.3,5.9-22.9,17.1-29.7,28.8s-8.8,18-2.8,26c.6.8,2.5,3.2,3.3,3.7,6.5,3.7,14.8,1.9,21.8.7,4.2-.7,6.9-1.7,10.8-3.2s2.8-.9,3.3-1.2.3-.5.5-.5c1.1-.3,3.1-.5,4.1-1,4.6-2.2,9.6-5,13.8-7.9s5.9-5.1,8.9-7.2.4-.7.7-1c.6-.5,1.4-1,2-1.6s1.1-1.5,1.6-2.1.4-.1.6-.3c.3-.3.7-1,1-1.3s.5-.2.6-.2,0-.3,0-.4,1-.8,1.3-1.3c.6-.9,1.6-1.8,2.3-2.8s.9-1.5,1-1.7c.3-.7,0-1.4.5-2.2s.7-.3.7-.4c0-.3-.3-.7-.1-1.1s.3-.2.4-.3c.2-.3.8-1.4,1.1-2s.3-1,.6-1.1.4,0,.7,0c.5,0,.9-.1,1.4-.2s.1-.3.4-.4.8.2,1.3,0,.7-.5.8-.5.6.7.9.9c.4.3,1.3.4,1.6.6s1,1,1.3,1.2.7,0,1.1.2.4.8.5.8c.2,0,.4-.1.6-.1s.2.4.5.5.7.2.7.2c.1.1.6,1.9.8,2.1s.4.2.5.5c.2.5-.3,1.2.7.8.2.4-.4.3-.4.5s.2.2.3.3c0,.3-.3.5-.3.7-1.7,5.5-3.3,11.3-4.2,16.9s-.4,5.3-1,7.8.3,0,.3.1c0,1.1-.3,2.7-.4,4-.3,9,1.8,16.8,7.8,23.7s3.6,3,6.2,4c6.5,2.4,11.2,1.5,17.7.2,1.2-.2,2.4-.8,3.5-1.2,2.8-1.2,5.7-2.3,8.3-3.6s1.1-1,1.6-1.5,1.7-1.1,2.3-1.6c1.9-1.5,6.1-6.3,7.1-8.3s.2-.5.3-.7c.2-.4.8-.6.9-.9,1.3-1.8,2.2-5.2,3.2-7s.5-1,.5-1.6h.4c0-.2,0-.4,0-.7,0-1.9.5-3.9.3-5.9-.6-6.2-2.9-10.3-7.3-14.3s-1.4-1.4-1.6-1.6-.3.1-.5,0-.4-.8-.7-1c-1.1-.7-2.4-1.4-3.5-2s-2.3-1.1-3-1.7-.3-.6-.3-.6c-1-.6-1.8-1.1-2.2-2.4s-.6-2.2-.5-2.6c0-.6.4-1.5.2-2.1s-.5-.3-.5-.6.2,0,.3-.2c.6-.8.2-1,.3-1.8s.5-1,.7-1.3,0-.9.8-.8c0-.4-.4-.5-.5-.8-.5-1.2.4-.8,1.2-1s.4-.3.6-.2c.3,0,.3.7.5.7.5.1.5-.3.6-.3.2,0,.4.2.7.1s.9-.4,1.2-.3.1.4.2.4.3-.3.5-.3,1.2-.2,1.3-.2c.8.1.5.5.9.8s.8.3,1.1.5.3.4.3.5c.2.1.6-.1.7,0s.3.4.4.5.5.4.8.5c7.1,4,20.7,2.1,28.5,1,3.8-.5,7.3-1.3,11-2.4s3-1.3,4.6-1.4,1.7-.2,2.3-.4.4-.6.7-.8c.6-.3,1.7-.3,2.3-.5s1.9-1.2,2.1-1.2.5.2.6.1c1.4-1,3.1-1.7,4.6-2.5s3.4-2.1,5-3.2,1.4-.8,1.5-1,0-.4.2-.6c.2-.2.8-.3.2-.5.1-.2,1.2-.9,1.4-1.1.7-.7,1.5-2.1,2.3-2.8s.7-.2.9-.4l-.4-.2c1-.4,1.4-1.5,1.9-2.4s1.3-3.4,1.5-4.6c1-6.5-1.7-13.2-7.2-16.7s-12.4-3.2-18-2.7-2,.3-3,.4-1.5,0-1.9,0-.7.5-1,.5-.6-.5-.7,0c-.5-.5-.3-.1-.5,0-.7.5-1.1.1-1.6.3s-1,.5-1.8.5-1.2.3-2.2.5-.4,0-.5,0c-.2,0-.2.4-.3.4s-.3-.1-.4-.1-.4.1-.4.1c-.1,0,0-.2,0-.3-.3-.2-.3.3-.4.3-.5.3-2.7.7-3.3.8s0,.3-.2.3c-.2,0-.4,0-.7,0s-.3.5-.5.6c-.5.2-1.2,0-1.7,0v.3c-.4.1-1.1.3-1.6.5s-.3.3-.4.4c-.9.3-2.7.4-2.6,1.4v-.3c-.8,0-1.2.4-1.5,1-.1-.6,0-.6-.6-.6-.1.5.4.1.3.6-.4-.1-.6.4-.7.4-.1,0-.3-.2-.5,0s-.3.9-1,.5c.2.7-.4.6-.9,1-1.7,1.4-2.3,2.6-3.7,4.2s-.8.9-.9,1-1.5.8-1.6.8c-.2,0-.1-.9-.9-.6.2-.4,0-.6-.4-.6s-.4.6-.7.7-1.1,0-1.7,0c-.8.2-1.3,1-2.2.9s-.4-.2-.6-.2c-.3,0-.6.1-1,0s-1.6-.6-1.8-.7c-.3-.3,0-.7,0-.8s-.5,0-.7-.2,0-.4-.2-.5-.6,0-.7-.3-.3-1.6-.4-2c-.2-.6-.9-1-.9-1.5s.4-1.2.4-1.3c.2-.3.5-.2.6-.2,0,0-.2-.4-.1-.6,0-.3.4-.6.3-.8s-.8-.4-.7-.8c1.2.2.4-.8.5-1.2s.7-1.2.7-1.3c.3-.3.8-.2,1.1-.4,1.3-.8,3.2-3.9,4.3-5.1s3.9-3.7,5.3-4.9,1-.8,1.5-1.4.3-.1.3-.2c0,0-.2-.4-.1-.4s.3-.1.5-.3c2-2.1,3.8-4.2,5.8-6.1s2.2-2.7,3.2-3.9c1.8-2.1,2.6-3.1,3.7-5.7s.7-1.4.8-1.5c.2-.2.6-.2.7-.3.5-.4,2.1-4.7,2.3-5.6,1.1-4.4.3-8.7-1.4-12.9-1.9-4.5-5.1-7.3-9.9-8.5s-1.8-.2-2.3-.4-.1-.8-.6,0c-.1-.5-.3-.2-.5-.2-3.3-.5-10.3.8-13.3,2.5s-.2.4-.2.3.1-.3-.1-.3c.1.8-.8.5-1,.7s-.3.5-.5.6-.6.2-1,.4-.9,1-1.4,1.3-.4,0-.5,0c0,0-.3.6-.5.8-.7.7-2,1.9-2.8,2.3s-.4,0-.5,0c0,0,.3.5,0,.9s-.4.2-.5.3-.2.9-.3.9-.5,0-.5,0,.1.1,0,.4c-.3.5-1.1,1.2-1.5,1.7s-.6,1.2-1.3,1.8-.5.3-.5.3c0,.1.1.4,0,.6-.1.3-.5.2-.6.3s0,.4-.1.5c-.2.3-.4.4-.4.5s-.1,1-.6.7,0-.8-.6-.6c0,.2.4.2.4.3s0,.9,0,1c-.1.4-.5.6-.7.8-.4.6-.5.9-.9,1.4s-.9,2.2-1.2,2.4-.3,0-.4,0,0,.6-.1.9c-1.1,2.3-2.1,4.4-3.1,6.7s-.7,1.8-1.2,2.5,0,5.4-.2,6.6-.3,1.5-.4,2.5-.5.6-.5.9c-.1.5.1.9,0,1.2s-.8,1.6-1,1.6-.4-.3-.9-.1-.1.2-.2.3c-.7.2-1-.1-1-.8s.3-.5.2-.8-.6-.8-.6-.8l-.5,1.7c-.3.2-.5.6-.7.7s-1.2-.1-1.7,0-.6.5-1,.5-.6-.8-1.1-.7c-.2,1.1-2,1.2-2.5.3s-.1-.6-.2-.8-1.3-.9-1.6-1-1-1.4-1.1-1.5c-.2-.3-.2-.9-.5-1.2s-.8,0-.6-.9v.3c.8,0,.4-.8.5-1.2.2-1.6-.1-3,0-4.5.4-3.7,1-6.9.5-10.7s-1-3.3-1.1-4.5.2-1.2.1-1.3-.3-.1-.5-.5c-.6-1.3-.8-2.6-1.7-3.8s-.5-.8-.8-1.4c-1.6-2.8-3-4.2-5.3-6.1s-7.9-4.4-11.8-4.9,0-.2-.2-.3c-1.5-.5-5.8-.1-7.5,0s-1.1,0-1.6,0-.6.6-.6.6c-.7.1-1.5.1-2.2.3s-.5.3-.7.3c-4.9,1.4-9.6,3.8-14.1,5.8s-4.7,2.3-6.4,3.9-.3.1-.4,0h.5c0,.1,0,.4,0,.4-.8-.2-1.8,0-2.6.5s-.4.6-.5.6c-.2.1-.6,0-.7.2s-.2.6-.6.8c-.5.3-.8,0-1.1,0s0,.8-.3,1.1-.9.4-1.1.7c0,.2.4-.1.4,0,.2.2-.4,1-.8.3-.3,0-.2,2-.9.7-.4.2-.5.4-.6.9h.4c.2.5-.4.2-.5.5s0,.4,0,.4c0,0-.4-.2-.5-.1s0,.2-.2.3c-.2.2-.6.3-.6.5s.1.4,0,.4c0,0-.5-.2-.6,0-.3.2-.1.8-.7.6l.3.4c-.2,0-.4,0-.6.1.3-.8,0-.5-.1-.6-.2-.2.1-.9-.7-.7,0,.6.7.7.7.7s-.4.5-.3.7c.1,0,.3-.1.4-.1,0,.3-.4,1.3-.4,1.4-.4.6-.9,0-1.2,1.1s-.6,2.1-.9,3.2-.2,1-.2,1.9-.3,1.2.4,1.2c-.2-.5.4-.7.4-.8,0-.4,0-1.3,0-1.6s.9-.4.2-.7c.2-.1.5-.3.6-.6s-.4,0-.3-.2c.9.1.2-1.3,1.1-.6l.5-2.1h.2c.2.2.6-.7.8-.9.2-.3.2-.2.4-.5s0-.3,0-.4c0,0,.3,0,.4,0s0-.4.1-.5c.2-.3.4-.6.6-.9s0-.3,0-.4c0-.2,1.2-.7,1.2-.8s-.2-.2.2-.7,2.1-2,2.6-2.3.1-.2.1-.3c.3,0,0,.5.4.4-.3.3-.5.7-.9,1.1-1,1.1-1.9,2-2.9,3.1s0,.7-.8.6h.3c.2.4-.7,1-.8,1.1-.5.8-.9,2.2-1.8,2.7l.3.2c-.4.4-.6,1-.9,1.5s-.4.2-.5.5-.2,1.8-.3,2.1c-.4,2.1-.3,4.2,0,6.2s.5.8.2,1.4h.3c.2.8,0,.5-.1.6-.2.3.3.3.3.4,0,.1-.1.4-.1.5,0,.5.9,2.1,1.2,2.6s1.1.9,0,1.2c0,.2.2,0,.3.2s-.2.5-.1.7h.7s0-.3,0-.3c0,.3.8.5.4.7s-.2,0-.3,0,.1.2,0,.3c-.2.2-.7,0-.7.4.4.2,1.1-.5,1.4-.3s.7,1.7.9,2,.6.5.7.8c0,.2-.5.2-.6.2s.1.5.1.6c.3.2.3-.3.4-.3.2,0,.3.2.5.4h-.6c-.4.3.2.2.1.3-.1.2-.4.1-.4.4.8,0,1.4.7,1.4,1.6h.6c0,.7.3.6.5.8s.3.4.5.6c.3.3.8,0,.2.9.8-.3.5,0,.7.2.4.2.6,0,.9.7-.9.5.1.2.3.3.3.1.2.5.3.6s.4,0,.6.2.1.6.2.7.3-.1.5,0c.6.5,1,1.5,1.5,2s.6.3.6.3c0,.1,0,.4,0,.5s.6,0,.7,0,.3.5.6.6c1.1.5,2.6,0,3.8.2s5.9.8,6.9,1.4.7.7,1,1c1,1,2,.6,3.3.7s2.6.8,3.3,1.2,1.4,1.1,1.5,1.7,0,.7.1,1c.4.8,1.1.3-.1,1.7-.4-.4-1-.4-1.4-.8-.9-1-.8-.9-2.1-1.5s-.2-.3-.3-.3c-.4,0-1.3-.1-1.2.5s3.3.8,3.5,2.3-.4,1-1.3.8l.3.7c-.8-.3-.9.4-1.4.4-.7,0-2.4-1.6-3-.6s.6,1.4-1.1.8-.7-.5-2.1-.6-1.2-.1-1.8-.3c.3.8-.7.2-.4,1.3s.4,0,.6.4.2.5.3.6c-.6.8-.6.1-.8,0-.4-.3-1-.5-1.4-.8s-.9-.7-1.7-.4c1.6,1.1,0,.5,0,.6.3.5-.2,1.4-.8,1.3s-.3-.7-.9-.1,0,.2,0,.3-.3.4.2.5c-.3.3-.6.7-1,.8l.6.2c-.4.7-.7,0-1.3,0,0,0,0,.2,0,.3.3.1.6.1.2.4-.1-.1-.2-.3-.2-.4ZM120.5,40.1c-.1-.3-.3-.4-.6,0h.6ZM117.6,41.4s0-.3,0-.3c-.7.3-.2.6,0,.3ZM196.5,42.4c-.1-.1-.5.3-.6.4l.7.3c0-.1-.1-.7-.1-.7ZM198,45.6c-.1-1-1.1,0-.5.5s.2-.5.5-.5ZM196.8,45.4c-.3-.3-.6.6-.2.6s.3-.5.2-.6ZM71.8,45.5c-.2-.2-.8.3-.6.7,0,0,.7-.6.6-.7ZM197.8,46.2h-.3c0,.2,0,.3.2.4v-.4ZM152.8,46.6c-.2,0-1,.3-1.1.4-.1.1.2.6,0,.9.5.3,1.2-1.2,1.1-1.3ZM151.1,47.8c-.3-.3-.7.7-1,.6v.3c-.1,0-.4-.6-.4-.6.1,1-.5.7-.9.9s.2.3,0,.5-.9.5-1.2.9-.8,1.2-1.1,1.5c-.8.8-1.8,1.1-2.3,2.2s-.4.1-.3.8c-.1,0-.9.3-1,.4s.2,1.8-.7,1.6h.3c0,.2-.7,1.4-.7,1.4s-.3-.2-.4-.1c-.3.2-.2,1-.4,1.1s-.7.1-.8.4c-.2.4.7,0,.4.7s-.3.2-.4.3c-1,1.6-1.8,4.3-2.4,6.1s-.6,1-.7,1.3c-.2.8,0,1.7.3,2.5l.8-2c.6-.5.9-2.6,1.5-3s.7.1.6-.4-.3,0-.3,0c-.2-.3.2-.3.2-.3,0,0,0-.3,0-.4.2-.4.5-1.1.8-1s.1.6.4.3-.5-.4-.6-.4c-.3-.3.9-1.4,1.1-1.6s0-.4.2-.6.6-.3.7-.4,0-1.1,0-1.4.4-.5.5-.5c.1,0,.2.4.3.4.7.1.7-1-.4-.6,0-.4.1-.7.6-.6l-.3-.3h.9c-.3-.7,0-1.5.9-1.1-.2-.2.4-1.5.5-1.5.2-.1.6,0,.7,0,0,0-.2-1.1.6-.7.2-.5-.9-.1-.6-.6s.4.2.5,0c.7-.8,1.2-1.8,1.9-2.6s.3-.5.5-.7.6,0,.7-.3-.2-.6-.2-.6.2-.3.3-.2-.1.3.1.3c.3-.4.3-1,.4-1.3s.5-.4.4-.5ZM196.6,47.9c-.5,0-.5,0-.4.4l.4-.4ZM196,48.3c-.2,0-.4,0-.4.3h.4s0-.3,0-.3ZM198.8,50.1c.1-.1-.1-.8-.4-.9v.9s.3,0,.4,0ZM68.1,49.8s-.5,0-.6,0c0,0,0,.4-.2.6.3,0,.9-.1.7-.6ZM197.6,51.1l-.4-.4c0,.3.2.5.4.4ZM64.9,51.6c-.5.3-1.3.3-1.3,1,.2-.3.8-.1.8-.1.1-.1,0-.5,0-.6.1,0,.5.2.4-.3ZM198.3,51.8s-.4-.1-.4,0l-.4.6c.2.1,1.1-.3.9-.6ZM66.3,52.6c0-.3-.3-.3-.6-.3v.3s.6,0,.6,0ZM62.2,53.6c0-.5-.2-.8-.7-.6,0,.2.2,0,.2.2.2.2-.2.5.5.4ZM65,52.9l-.6.6h.6s0-.6,0-.6ZM61.7,54.1h-.6c.2.4.3.2.6.1h0ZM63.9,54.8c-.3,0-.5,0-.6.3.3,0,.5,0,.6-.3ZM62.6,54.9l-1,.4c.3,0,.9-.1,1-.4ZM48.2,55.9c-.2-.2-.6.4-.4.6s.5-.5.4-.6ZM58.6,58c.2,0,.5-.1.7-.1v-.4c0,0,.2.2.4,0,.4-.2-.2-.1-.1-.4.6,0,.8-.9,1.1-1.3,0,0-1.2.7-1.2.8-.2.2,0,.5,0,.5,0,0-.3,0-.4,0s0,.3,0,.3c-.1.2-.4.1-.4.5-.3.1-1.1.8-1.3,1.1-.5.6-.1,1-1.1.9l.3.9c.5.1.2-.3.4-.4s.6,0,.6,0c0-.1,0-.5,0-.8s.5-.3.6-.5c.4-.5.5-.7.5-1.2ZM198.9,56.3c-.2-.2-.9.8.1.6-.1-.1-.1-.5-.1-.6ZM45.5,58.3c.2.2.8-.9.7-1-.2,0-.9.8-.7,1ZM47,57.5c-.3-.3-.7.8-.2.6s.3-.5.2-.6ZM45.3,60.8c.4-.1.3-.4-.1-.4v.4ZM45,61.7s0-.3,0-.4.3-.3.2-.6c-.3.3-1.2.7-.4.6l-.3.5c0,0,.5-.1.6-.2ZM55.6,63c0-.3,0-.5-.3-.6,0,.2.2.7.3.6ZM57.3,65c0-.2-.2-.3-.4-.3v.3s.4,0,.4,0ZM200.6,83.6c-.1-.4-.3-.2-.6-.1h0c0,.1.6.1.6.1ZM210.7,83.6s-.3,0-.4,0c.2,1.2.6.2.4,0ZM205.5,85.3c-.5,0-1.1-.3-1.4.2.2.3.9.1,1.2,0s.5,0,.2-.3ZM208.9,87.1c1.2-.3,1.1-1.2-.1-1.1l.7.3v.4s-.6-.1-.6-.1v.6ZM193.6,87c.2,0,.4,0,.6,0,0-.4-.4-.5-.6-.3s0,.2,0,.3c-.6,0-.9,0-1,.7l.9-.4c.2,0,0-.3.1-.3ZM60,87.1h-.6s0,.1,0,.1c.3,0,.4.2.6-.1ZM191.6,87.6c0-.2-.2-.3-.4-.3v.3s.4,0,.4,0ZM218,88.8c.1,0,.4-.1.4-.2s-.4-.6-.6-.6c0,.2,0,.8.1.9ZM207.2,88.4h-.6s0,.3,0,.3c.3,0,.5,0,.6-.3ZM222,88.6l-1.1.6c.5,0,.8.2,1.3,0,0-.2-.2,0-.3-.2s.2-.4.1-.4ZM211.4,89.1c-.4-.2-2.2.3-2.7.2s-.7-.6-1-.6,0,.9.1,1.1.3,0,.3,0c.2.2.4.8.9.5s-.3-.5.5-.7.3.2.4.2c.3,0,.9,0,1.2,0s.5-.2.6-.4h-.4c0,0,.1-.4.1-.4ZM224.6,89.4c-.2-.2-2-.8-2.1-.7-.1.1.5.7.5.9,1,.7,1.8.8,2.9,1.1s1.3.8.9,0c.7-.2.3.3.4.4s.5-.2.7-.1c0-.2-.2,0-.3-.3s0-.5,0-.5c-.3-.3-.3.6-.6.3s0-.5,0-.7c-.3,0-.2.5-.5.5-.4,0-1.4-.6-1.7-1v.3ZM215,89.3c0,0,.3.5.6,0-.4-.6-.8-.5-1.4-.4l.8.6c.1,0,0-.3,0-.3ZM219.7,89c-.4,0-.8-.4-.7.1h.7s0-.1,0-.1ZM232.3,88.8h-.4c.1.2.2.3.4.3v-.3ZM206.3,89.4c-.3.1-.7-.1-.9-.1s0,.2-.2.3c-.3,0-.8,0-1.1,0s-.6.5-.5.6c.3.4.9,0,.7.6,0,0,.8-.3,1-.3s0-.3.3-.3c.5-.2.8.4.8-.7ZM212.9,89.3s-.9,0-.7.4c0,0,1-.2.7-.4ZM213.4,89.3c-.2-.2-.5.3-.3.6.2,0,.4-.5.3-.6ZM228,89.4c-.2.2.4.6.4.2s-.3-.3-.4-.2ZM206.8,89.4l-.3.6h.2c0,.1.3-.4.3-.4h-.2ZM216.9,90c.1-.1-.3-.6-.4-.4s.3.6.4.4ZM230,90c.2-.2-.4-.6-.4-.2s.3.3.4.2ZM212.7,90.3c-.2-.6-.1-.3-.7-.3-.1.5.5.2.7.3ZM228.4,90.4s-.1-.4-.1-.4-.4.2-.6.1c-.1.5.6.5.7.3ZM203.2,90.3s-.9.2-1.1-.1c-.3.4,1.2,1,1.5,1s-.2-.4-.2-.4c0-.1,0-.4-.1-.5ZM233.2,90.6c-.8-.4-.4.2-.4.3,0,.4-.6-.2-.9,0s.8,1,.9,1.2.1.4.3.7c.7,1,1.5.3,1.6.4s0,.6.1.8c0,.2,1,1.9,1.3,1.6-.2-.4.2-.6.1-1-1,.2-.5.1-.8-.3s-.4-.2-.5-.4c.4-.2.5-.7,0-1l.7-.3c-.6-.8-.7,0-.8,0-.3,0-.5-.4-.8-.4,0-.3.5,0,.6-.1s-.2-.4-.2-.5.6-.1.3-.4-.7.5-1,.3c.1-.8-.2-.5-.6-.7s-.1-.2-.1-.2ZM199.5,91.1c.2-.3-.7-.8-.6.3.1-.1.5-.3.6-.3ZM229,90.8c-.1-.1-.6,0-.4.4s.6-.2.4-.4ZM235.4,90.9c-.2-.1-.5,0-.7,0,.4.4.5.4.4,1,.1-.1.5-.3.6-.3,0,0-.3-.6-.3-.7ZM205.2,91.4v-.4c-.2.1-.3.2-.3.4h.3ZM200.1,91.2l-.6.6.2.2.6-.6-.2-.2ZM236.7,91.8l-.7-.3v.6s.7-.3.7-.3ZM194.7,92c-.1.1-.2.6,0,.7.2-.1.8-.5.8-.8s-.7,0-.8.1ZM231.7,92.5c-.2-.2-.3-.6-.8-.5l-.7.7c.6,0,.8-.6,1.3,0s.1.5.1.5c0,0,.6-.2.8.1,0-.6-.5-.7-.8-.9ZM191.5,93c-.1-.8-1.4,0-1.3.1.2,0,.5.3.6.3.1,0,0-.5.7-.4ZM189.2,93.3h-1.1c0,.1.5,1,.5,1,.2-.6.8-.2.6-1ZM190.5,93.8c0-.8-.5-.7-1-.2l1,.2ZM238.1,93.4s-.3,0-.4-.2v.6c.4.1.6-.1.4-.4ZM236.8,93.4h-.3c0,.3,0,.4.2.6v-.6ZM186.2,94c-.4.1-1,0-1.3.5.3.5.7-.2.8-.2.6,0,.2.5.2.6.7.1.3-.3.3-.9ZM237.8,94c-.2,0-.4,0-.4.3h.4s0-.3,0-.3ZM237.5,95c0-.2-.8-1.1-1-.5s.9,0,.5.8-.4,0-.2.3c.5.2,1.3.4,1-.4-.3,0,0,.3-.2.3s0-.4-.4-.3h.3ZM237.1,98.8c.2-.6-.4-.6-.6-.9-.4-.6-.5-2-1.6-1.9-.1.4.3.2.3.4.1.9.4.9.8,1.6s-.1.8,1,.9ZM238,96c-.7-.3-.2.7-.2.8,0,.2-.3.3,0,1s.6.7.7.5c.3-.4-.2-2.1-.6-2.3ZM238.1,101c0-.2-.2-.3-.4-.3v.3s.4,0,.4,0ZM240.8,103.5c-.1-.1-.8.6-.9.8,0,.5.3,0,.4,0,.3.3-.3.3-.3.4l.6,1.2c.1-.3.8-.7.8-.7s-.3-.7-.3-.8,0-.4,0-.4c-.1,0-.6.2-.4-.4ZM242.4,108.7c-.2,0-.4,0-.4.3h.4s0-.3,0-.3ZM242.2,109.8c.3,0,.3-.4.3-.7-.3,0-.3.4-.3.7ZM242.5,111.5h-.3c0,.3,0,.4.2.6v-.6ZM242.5,114.4s-.3,0-.4,0v.6s.4-.4.4-.4c0,0,0-.2,0-.2ZM241.9,120.8c-.1-.1-1.1-.4-.8.2s.4.2.5.3c.2.2,0,.6.5.5,0-.2,0-.8-.2-1ZM239.1,125.8v-.4c-.2.1-.3.2-.3.4h.3ZM240.5,125.8c-.2-.2-.6.4-.2.4s.3-.3.2-.4ZM232.8,136c0-.5-.1-.6-.6-.4.1.4.1.5.6.4ZM171.2,156.8c0-.8-.8-1-.7-.1h.7ZM170.7,157l-.7.3c0,.5.9,1.2.8.6s-.4-.3-.5-.6l.4-.3ZM171.3,158.4s-.4-.2-.5-.3l.4.7c.3,0,.3-.3.2-.4ZM175.1,159.8c0,0,0-.3-.2-.2v.4s.4,0,.4,0v.2c-.1,0,.3,0,.3,0,0-.4-.3-.3-.5-.5ZM175.5,161c-.9,0-.5.6,0,1v-1ZM176.2,163.6c-.4,0-.2.2-.4.5s-.2,0-.3,0c0,0,.3.4.3.5s-.4,0-.3.3.9.2.8.9c.8-.6-.2-.2.2-.8h-.6c0-.4.4-.2.4-.2s-.4-1-.1-1.3ZM177.6,164.5l-.4-1c.2.2,0,1.1.4,1ZM176.7,166.4h-.4v.3h.4v-.3ZM179.1,168.8l-.3.9c.6.1,0-.5.3-.9ZM175.2,169.4c.2.2.8-.2.4-.4s-.5.3-.4.4ZM176.2,169.5c-.3,0-.5.2-.6.4.3,0,.5-.2.6-.4ZM177.6,180.1c0-.2,0-.4-.3-.4v.4s.3,0,.3,0ZM175.5,188.8c0,0,0-.6-.2-.6-.4,0,0,.8.2.6Z"/>
          <path class="st0" d="M217.4,83.8c-.2,0-1,.3-.6-.1s.4.2.6.1Z"/>
          <path class="st0" d="M150.6,33.4c0,.2-.4.2-.6.3,0,0,0-.5.6-.3Z"/>
          <path class="st0" d="M75.1,112.7c.3.3-.7.5-.7-.1.1,0,.7.1.7.1Z"/>
          <path class="st0" d="M75.7,111.9c-.2.3-.4.6-.6.2l.6-.2Z"/>
        </g>
      </g>
      <g>
        <path class="st0" d="M131.3,100.2c.1,0,.1.4.6.5s1.4-.3,1.8-.3,1,.2,1.1.3c.3.5-.4.7-.6.8-.4.2.2.3.4.4.4.2,1,.8,1.3.9s.6,0,.9.1,0,.8.3,1,.9.7,1,.8c.4.3,1.5.7,1.9,1.1s.9,2,1.2,2.2.3,0,.4,0,0,.2,0,.3c0,.8.8,1.7,1,2.5s0,2.1.4,2.4.3,0,.3,0c.1.2-.4,2.4-.6,2.8-1,3.2-3.1,5.9-6.2,7.4s-7.9,2.6-12.5,1.3-1.1-.6-1.4-.5,0,.4-.2.4-.7-.3-.9-.4c-.4-.2-1-1-1.2-1.1s-1,0-1.3,0-1.6-.8-1.7-.9c-.8-.5-1.9-2.3-2.1-3.2s.2-1-.5-.9l.3-.2c0-.3-.7-.7-.5-.9s.3,0,.3,0c0-.5-.4-1.3-.4-1.7s.2-.9.2-1.4v.4c1.1,0,.6-1.1.7-1.9s.5-.8.5-1.1-.3-1-.5-.6c0-.4-.2-1.2.4-1.1v.4c.3-.3,1-.6,1.1-.8s.1-.7.3-1.1c.4-.7,1.1-1.4.9-2.3.4.2.2,0,.5-.2s.7,0,.8-.1.2-1.1.4-1.4c.4-.5,1.3-1.1,1.8-1.5s.3,0,.3,0,0-.3,0-.4.6,0,.8,0,1.5-1,1.6-1,.3.2.5.2,1.3-.4,1.5-.5c1.3-.4,1.3-.4,2.6-.5s2-.5,2.6,0ZM130.6,101.4c-.2,0-.4,0-.4.3h.4s0-.3,0-.3ZM123,103.8s-.2-.5-.1-.7c-.3,0-.8.6-.4.8s.5,0,.6,0ZM118.2,106.8c-.3-.1-.5.4-.5.6-.2.7,1.1.2,0,0,.3-.1.5-.3.4-.6ZM118.9,107.7v-.6c-.2.2-.4.4,0,.6ZM130.7,112.6c.1-.6,0-1.6,0-2.3s-.2-.3-.3-.1c-.2.3-1,.7-1.2,1s-1.6,1.9-1.7,2.1c-.2.3,0,.7,0,1s-.3,0-.3.3c-.1,1,0,.7.5.8s-.1.5.9,0,2.1-1.8,2.2-2.8ZM115.1,116.6v-1.7c-.4.4-.5,1.5,0,1.7Z"/>
        <path class="st0" d="M143.1,112.5c0,.2,0,.4-.3.4v-.4s.3,0,.3,0Z"/>
      </g>
      <path class="st0" d="M75.7,113.2c-.3,0-.5-.2-.4-.4l.4.4Z"/>
      <path class="st0" d="M121.5,79.9h-.3c0-.2,0-.3.2-.4v.4Z"/>
      <g>
        <path class="st0" d="M174.2,28.2v.3c.3,0,1.4-.2,1.3.3h.1c0-.6.7-.3,1.1-.4v.4c.5-.5,1.1.2,1.7-.1v1.1s-.7,0-.7,0c0-.2.5-.3.3-.6s-.4.3-.5.4c-.9.4-2-.2-2.9.2l.3-.6c-.6,0-1.3-.4-1.4.4-.2,0-.1-.4-.4-.4s-1,.3-1.2.1.1-.3.2-.3c.5-.7,1.4-.6,2.1-.8ZM176.5,28.9v.6c-.1,0,.2,0,.2,0v-.6c.1,0-.2,0-.2,0ZM177.4,29.2c-.2,0-.7.2-.6.3.3,0,.5,0,.6-.3Z"/>
        <path class="st0" d="M181.5,30.8s.3.7.3.8c0,.1-.6-.1,0,.5-.7.2-.7-1.7-.3-1.3Z"/>
        <path class="st0" d="M137,45.9s-.6-.1-.6-.1c-.1-.2.5-.7.5-.7.3,0,.2.8,0,.9Z"/>
        <path class="st0" d="M48.9,52.9c-.3.5-.4,1-.9.4l.9-.4Z"/>
        <path class="st0" d="M176.5,31c.3.4-.7.3-.9.3,0-.4.6-.5.9-.3Z"/>
        <rect class="st0" x="183.2" y="34.4" width=".8" height=".3" transform="translate(104.5 203.8) rotate(-75.6)"/>
        <path class="st0" d="M180.9,31.1c.3.3-.1.6-.6.3,0-.2.5-.4.6-.3Z"/>
        <rect class="st0" x="189.7" y="35.3" width=".3" height=".6" transform="translate(-1.2 64.3) rotate(-19.2)"/>
        <rect class="st0" x="134.3" y="47.5" width=".8" height=".2" transform="translate(5.8 109.2) rotate(-45)"/>
        <path class="st0" d="M52.5,50.2s-.3,0-.3,0l.4-.5c0,.1-.1.6-.1.6Z"/>
        <path class="st0" d="M180.2,29.8c0,0-.1.4-.2.4-.4,0,0-.6.2-.4Z"/>
        <path class="st0" d="M186.2,35.1h-.3c0,0,.2-.7.3-.6v.6Z"/>
        <path class="st0" d="M143.1,38.1h.4c0,.3-.3.4-.4,0Z"/>
        <path class="st0" d="M194,36.1v-.4c.3,0,.4.3,0,.4Z"/>
        <path class="st0" d="M182.9,34.2c0,.2,0,.4-.3.4v-.4s.3,0,.3,0Z"/>
        <path class="st0" d="M79.4,33.4c.1,0-.4.3-.6.3,0-.3.3-.3.6-.3Z"/>
        <path class="st0" d="M64.9,56.5c-.5.2-.7.7-1.3.6-.1-.4.2-.2.3-.4s0-.5.2-.6c.2-.1,1,0,.8.4Z"/>
        <path class="st0" d="M57.3,64h-.7c.1-.4.4-.4.7-.6v.6Z"/>
        <path class="st0" d="M61.7,89.6h-.4s0-.3,0-.3c.2,0,.4,0,.4.3Z"/>
        <path class="st0" d="M66.3,54.1c.1,0-.4.3-.6.3,0-.3.3-.3.6-.3Z"/>
        <path class="st0" d="M115.9,36s0,.3,0,.4c.1.2.5.1.4.5-.8.3-.4-.2-1-.3l-.6.6c-.2-.4.3-.5.3-.5,0-.6-.5-.3-.7-.8.2,0,1.5.1,1.6.2Z"/>
        <polygon class="st0" points="109.2 32.8 108.4 33.1 108.4 32.4 109.2 32.8"/>
        <path class="st0" d="M117.5,37.9c.2.3-.3.3-.6.3v-.4c.3,0,.6.1.6.1Z"/>
        <rect class="st0" x="110.5" y="34.1" width=".3" height=".6" transform="translate(76.2 145) rotate(-89.9)"/>
        <path class="st0" d="M109.2,33.5v.3s-.6,0-.6,0c0-.5.2,0,.6-.3Z"/>
        <path class="st0" d="M115.9,38.8v.4c0,0-.4-.3-.4-.4h.4Z"/>
      </g>
    </g>
  </g>
</svg>